<?xml version="1.0" encoding="UTF-8"?>
<svg xmlns="http://www.w3.org/2000/svg" xmlns:xlink="http://www.w3.org/1999/xlink" width="144pt" height="72pt" viewBox="0 0 144 72" version="1.1">
<g id="surface49">
<rect x="0" y="0" width="144" height="72" style="fill:rgb(100%,100%,100%);fill-opacity:1;stroke:none;"/>
<path style="fill:none;stroke-width:0.75;stroke-linecap:round;stroke-linejoin:round;stroke:rgb(74.509804%,74.509804%,74.509804%);stroke-opacity:1;stroke-miterlimit:10;" d="M 0 36 L 144 36 "/>
<path style="fill:none;stroke-width:0.75;stroke-linecap:round;stroke-linejoin:round;stroke:rgb(0%,0%,0%);stroke-opacity:1;stroke-miterlimit:10;" d="M 0 7.652344 L 2.167969 8.503906 L 4.3125 9.335938 L 6.429688 10.152344 L 8.519531 10.949219 L 10.585938 11.730469 L 12.628906 12.496094 L 14.644531 13.242188 L 16.636719 13.96875 L 18.609375 14.679688 L 20.554688 15.375 L 22.480469 16.050781 L 24.378906 16.710938 L 26.257812 17.355469 L 28.117188 17.980469 L 29.953125 18.585938 L 31.765625 19.175781 L 33.5625 19.75 L 35.335938 20.304688 L 37.089844 20.84375 L 38.820312 21.363281 L 40.535156 21.867188 L 42.230469 22.351562 L 43.910156 22.820312 L 45.566406 23.269531 L 47.207031 23.707031 L 48.832031 24.121094 L 50.4375 24.519531 L 52.027344 24.902344 L 53.601562 25.265625 L 55.15625 25.613281 L 56.699219 25.945312 L 58.222656 26.257812 L 59.734375 26.550781 L 61.230469 26.828125 L 62.710938 27.089844 L 64.179688 27.332031 L 65.632812 27.558594 L 67.070312 27.765625 L 68.5 27.957031 L 69.914062 28.128906 L 71.316406 28.285156 L 72.707031 28.425781 L 74.089844 28.546875 L 75.457031 28.652344 L 76.8125 28.738281 L 78.160156 28.808594 L 79.5 28.859375 L 80.828125 28.894531 L 82.144531 28.910156 L 83.453125 28.910156 L 84.753906 28.894531 L 86.046875 28.859375 L 87.332031 28.808594 L 88.605469 28.738281 L 89.875 28.652344 L 91.140625 28.546875 L 92.394531 28.425781 L 93.644531 28.285156 L 94.890625 28.128906 L 96.128906 27.957031 L 97.363281 27.765625 L 98.589844 27.558594 L 99.816406 27.332031 L 101.035156 27.089844 L 102.253906 26.828125 L 103.464844 26.550781 L 104.675781 26.257812 L 105.886719 25.945312 L 107.089844 25.613281 L 108.296875 25.265625 L 109.496094 24.902344 L 110.699219 24.519531 L 111.898438 24.121094 L 113.101562 23.707031 L 114.300781 23.269531 L 115.5 22.820312 L 116.703125 22.351562 L 117.902344 21.867188 L 119.105469 21.363281 L 120.3125 20.84375 L 121.519531 20.304688 L 122.726562 19.75 L 123.941406 19.175781 L 125.15625 18.585938 L 126.375 17.980469 L 127.597656 17.355469 L 128.824219 16.710938 L 130.054688 16.050781 L 131.289062 15.375 L 132.53125 14.679688 L 133.777344 13.96875 L 135.03125 13.242188 L 136.292969 12.496094 L 137.558594 11.730469 L 138.832031 10.949219 L 140.109375 10.152344 L 141.398438 9.335938 L 142.695312 8.503906 L 144 7.652344 "/>
</g>
</svg>
