<?xml version="1.0" encoding="UTF-8"?>
<svg xmlns="http://www.w3.org/2000/svg" xmlns:xlink="http://www.w3.org/1999/xlink" width="288pt" height="144pt" viewBox="0 0 288 144" version="1.1">
<g id="surface49">
<rect x="0" y="0" width="288" height="144" style="fill:rgb(100%,100%,100%);fill-opacity:1;stroke:none;"/>
<path style="fill-rule:nonzero;fill:rgb(0%,0%,0%);fill-opacity:1;stroke-width:0.75;stroke-linecap:round;stroke-linejoin:round;stroke:rgb(0%,0%,0%);stroke-opacity:1;stroke-miterlimit:10;" d="M 162.101562 124.734375 L 163.167969 124.691406 L 164.234375 124.613281 L 165.308594 124.519531 L 166.386719 124.394531 L 167.464844 124.238281 L 168.546875 124.050781 L 169.628906 123.832031 L 170.710938 123.578125 L 171.800781 123.308594 L 172.890625 123.007812 L 173.980469 122.675781 L 175.070312 122.316406 L 176.160156 121.925781 L 177.253906 121.503906 L 178.351562 121.0625 L 179.449219 120.59375 L 180.546875 120.09375 L 181.644531 119.566406 L 182.742188 119.007812 L 183.84375 118.425781 L 184.949219 117.824219 L 186.054688 117.191406 L 187.160156 116.53125 L 188.269531 115.84375 L 189.375 115.128906 L 190.492188 114.390625 L 191.605469 113.628906 L 192.722656 112.835938 L 193.84375 112.019531 L 194.960938 111.175781 L 196.089844 110.308594 L 197.21875 109.417969 L 198.347656 108.5 L 199.480469 107.554688 L 200.617188 106.585938 L 201.757812 105.59375 L 202.902344 104.570312 L 204.050781 103.527344 L 205.203125 102.457031 L 206.359375 101.359375 L 207.515625 100.238281 L 208.683594 99.09375 L 209.851562 97.921875 L 211.027344 96.726562 L 212.207031 95.503906 L 213.394531 94.261719 L 189.808594 78.539062 L 189.25 79.886719 L 188.683594 81.203125 L 188.113281 82.496094 L 187.535156 83.757812 L 186.957031 84.992188 L 186.371094 86.195312 L 185.78125 87.375 L 185.1875 88.527344 L 184.589844 89.648438 L 183.988281 90.746094 L 183.382812 91.816406 L 182.773438 92.855469 L 182.160156 93.867188 L 181.546875 94.851562 L 180.929688 95.8125 L 180.3125 96.742188 L 179.683594 97.644531 L 179.058594 98.519531 L 178.429688 99.371094 L 177.800781 100.195312 L 177.167969 100.992188 L 176.53125 101.757812 L 175.894531 102.496094 L 175.253906 103.214844 L 174.613281 103.902344 L 173.976562 104.570312 L 173.328125 105.203125 L 172.683594 105.808594 L 172.035156 106.394531 L 171.386719 106.953125 L 170.742188 107.488281 L 170.09375 108 L 169.4375 108.476562 L 168.785156 108.929688 L 168.128906 109.363281 L 167.472656 109.773438 L 166.820312 110.160156 L 166.160156 110.523438 L 165.5 110.855469 L 164.835938 111.164062 L 164.171875 111.449219 L 163.503906 111.714844 L 162.835938 111.960938 L 162.164062 112.1875 L 161.488281 112.375 L 160.808594 112.542969 L 160.125 112.691406 L 159.4375 112.816406 L 158.746094 112.921875 L 158.050781 113.007812 L 157.351562 113.054688 L 156.644531 113.082031 L 155.933594 113.085938 L 155.21875 113.070312 L 154.496094 113.03125 L 153.765625 112.964844 L 153.035156 112.863281 L 152.296875 112.742188 L 151.550781 112.59375 L 150.800781 112.421875 L 150.042969 112.230469 L 149.285156 112 L 148.519531 111.738281 L 147.75 111.457031 L 146.976562 111.144531 L 146.195312 110.8125 L 145.410156 110.445312 L 144.625 110.042969 L 143.835938 109.617188 L 143.042969 109.164062 L 142.246094 108.683594 L 141.445312 108.171875 L 140.648438 107.625 L 139.847656 107.054688 L 139.042969 106.453125 L 138.234375 105.824219 L 137.425781 105.171875 L 136.617188 104.480469 L 135.8125 103.761719 L 135.003906 103.011719 L 134.195312 102.238281 L 133.382812 101.433594 L 132.578125 100.59375 L 131.773438 99.730469 L 130.96875 98.835938 L 130.160156 97.914062 L 129.363281 96.957031 L 128.5625 95.976562 L 127.757812 94.96875 L 126.964844 93.925781 L 126.171875 92.855469 L 125.378906 91.757812 L 124.585938 90.632812 L 123.800781 89.472656 L 123.015625 88.289062 L 122.230469 87.074219 L 121.453125 85.835938 L 120.675781 84.5625 L 119.902344 83.265625 L 119.070312 81.878906 L 118.234375 80.511719 L 117.402344 79.171875 L 116.566406 77.851562 L 115.726562 76.558594 L 114.882812 75.289062 L 114.039062 74.042969 L 113.191406 72.816406 L 112.34375 71.617188 L 111.484375 70.441406 L 110.625 69.292969 L 109.765625 68.160156 L 108.898438 67.054688 L 108.027344 65.976562 L 107.148438 64.917969 L 106.265625 63.886719 L 105.375 62.875 L 104.484375 61.890625 L 103.582031 60.929688 L 102.675781 59.992188 L 101.761719 59.078125 L 100.84375 58.1875 L 99.914062 57.324219 L 98.976562 56.484375 L 98.035156 55.667969 L 97.082031 54.878906 L 96.121094 54.113281 L 95.152344 53.375 L 94.175781 52.660156 L 93.1875 51.972656 L 92.1875 51.3125 L 91.179688 50.679688 L 90.164062 50.070312 L 89.136719 49.492188 L 88.097656 48.941406 L 87.050781 48.417969 L 85.992188 47.921875 L 84.925781 47.460938 L 83.847656 47.027344 L 82.757812 46.625 L 81.660156 46.253906 L 80.550781 45.914062 L 79.4375 45.605469 L 78.3125 45.332031 L 77.179688 45.089844 L 76.039062 44.882812 L 74.890625 44.710938 L 73.738281 44.570312 L 72.582031 44.46875 L 71.417969 44.402344 L 70.25 44.367188 L 69.082031 44.371094 L 67.910156 44.40625 L 66.738281 44.476562 L 65.5625 44.585938 L 64.390625 44.726562 L 63.21875 44.902344 L 62.046875 45.113281 L 60.878906 45.359375 L 59.710938 45.636719 L 58.546875 45.945312 L 57.386719 46.289062 L 56.230469 46.664062 L 55.078125 47.070312 L 53.929688 47.507812 L 52.789062 47.972656 L 51.648438 48.472656 L 50.515625 49 L 49.386719 49.554688 L 48.261719 50.140625 L 47.140625 50.753906 L 46.023438 51.394531 L 44.914062 52.066406 L 43.804688 52.761719 L 42.703125 53.484375 L 41.605469 54.234375 L 40.507812 55.011719 L 39.417969 55.816406 L 38.332031 56.644531 L 37.246094 57.496094 L 36.164062 58.378906 L 35.085938 59.285156 L 34.011719 60.214844 L 32.9375 61.175781 L 31.867188 62.15625 L 30.796875 63.164062 L 29.730469 64.195312 L 28.664062 65.253906 L 27.601562 66.335938 L 26.539062 67.445312 L 25.476562 68.578125 L 24.414062 69.734375 L 23.355469 70.917969 L 22.296875 72.125 L 21.238281 73.359375 L 20.179688 74.617188 L 19.121094 75.898438 L 18.066406 77.207031 L 17.007812 78.539062 L 40.59375 94.261719 L 41.28125 93.003906 L 41.96875 91.769531 L 42.65625 90.566406 L 43.34375 89.390625 L 44.03125 88.242188 L 44.71875 87.125 L 45.402344 86.03125 L 46.089844 84.96875 L 46.773438 83.933594 L 47.453125 82.925781 L 48.136719 81.945312 L 48.816406 80.992188 L 49.496094 80.070312 L 50.171875 79.171875 L 50.84375 78.304688 L 51.515625 77.460938 L 52.1875 76.648438 L 52.855469 75.863281 L 53.519531 75.105469 L 54.179688 74.371094 L 54.835938 73.667969 L 55.492188 72.988281 L 56.140625 72.335938 L 56.789062 71.710938 L 57.429688 71.113281 L 58.070312 70.539062 L 58.703125 69.992188 L 59.332031 69.46875 L 59.957031 68.972656 L 60.578125 68.5 L 61.195312 68.050781 L 61.804688 67.628906 L 62.414062 67.226562 L 63.015625 66.847656 L 63.613281 66.492188 L 64.207031 66.15625 L 64.792969 65.84375 L 65.378906 65.550781 L 65.960938 65.28125 L 66.539062 65.027344 L 67.117188 64.796875 L 67.691406 64.585938 L 68.265625 64.390625 L 68.835938 64.214844 L 69.40625 64.058594 L 69.980469 63.917969 L 70.554688 63.796875 L 71.128906 63.691406 L 71.710938 63.605469 L 72.292969 63.539062 L 72.878906 63.488281 L 73.472656 63.457031 L 74.070312 63.441406 L 74.675781 63.445312 L 75.289062 63.46875 L 75.910156 63.511719 L 76.539062 63.574219 L 77.175781 63.65625 L 77.824219 63.761719 L 78.480469 63.890625 L 79.148438 64.039062 L 79.824219 64.207031 L 80.511719 64.402344 L 81.210938 64.621094 L 81.917969 64.863281 L 82.636719 65.128906 L 83.363281 65.421875 L 84.101562 65.738281 L 84.851562 66.082031 L 85.605469 66.453125 L 86.375 66.851562 L 87.148438 67.273438 L 87.933594 67.726562 L 88.730469 68.203125 L 89.53125 68.710938 L 90.339844 69.246094 L 91.15625 69.8125 L 91.980469 70.402344 L 92.8125 71.023438 L 93.652344 71.671875 L 94.5 72.351562 L 95.351562 73.058594 L 96.207031 73.792969 L 97.070312 74.558594 L 97.9375 75.355469 L 98.8125 76.175781 L 99.6875 77.027344 L 100.574219 77.910156 L 101.460938 78.820312 L 102.347656 79.761719 L 103.242188 80.730469 L 104.140625 81.726562 L 105.042969 82.753906 L 105.945312 83.8125 L 106.851562 84.898438 L 107.761719 86.011719 L 108.671875 87.15625 L 109.585938 88.332031 L 110.496094 89.535156 L 111.46875 90.828125 L 112.4375 92.097656 L 113.402344 93.339844 L 114.367188 94.5625 L 115.328125 95.757812 L 116.289062 96.925781 L 117.242188 98.074219 L 118.191406 99.199219 L 119.144531 100.296875 L 120.09375 101.371094 L 121.039062 102.425781 L 121.984375 103.453125 L 122.929688 104.453125 L 123.871094 105.433594 L 124.808594 106.394531 L 125.746094 107.324219 L 126.6875 108.230469 L 127.625 109.121094 L 128.558594 109.984375 L 129.5 110.824219 L 130.4375 111.636719 L 131.375 112.429688 L 132.3125 113.203125 L 133.25 113.949219 L 134.191406 114.671875 L 135.132812 115.367188 L 136.082031 116.039062 L 137.027344 116.691406 L 137.972656 117.324219 L 138.925781 117.929688 L 139.882812 118.503906 L 140.84375 119.054688 L 141.804688 119.589844 L 142.769531 120.101562 L 143.738281 120.585938 L 144.714844 121.039062 L 145.699219 121.46875 L 146.683594 121.875 L 147.671875 122.261719 L 148.664062 122.621094 L 149.667969 122.949219 L 150.675781 123.25 L 151.6875 123.519531 L 152.703125 123.769531 L 153.726562 123.996094 L 154.757812 124.191406 L 155.792969 124.355469 L 156.832031 124.484375 L 157.875 124.585938 L 158.925781 124.671875 L 159.980469 124.722656 L 161.039062 124.746094 Z M 162.101562 124.734375 "/>
</g>
</svg>
