<?xml version="1.0" encoding="UTF-8"?>
<svg xmlns="http://www.w3.org/2000/svg" xmlns:xlink="http://www.w3.org/1999/xlink" width="144pt" height="72pt" viewBox="0 0 144 72" version="1.1">
<g id="surface44">
<rect x="0" y="0" width="144" height="72" style="fill:rgb(100%,100%,100%);fill-opacity:1;stroke:none;"/>
<path style="fill:none;stroke-width:0.75;stroke-linecap:round;stroke-linejoin:round;stroke:rgb(74.509804%,74.509804%,74.509804%);stroke-opacity:1;stroke-miterlimit:10;" d="M 0 36 L 144 36 "/>
<path style="fill:none;stroke-width:0.75;stroke-linecap:round;stroke-linejoin:round;stroke:rgb(0%,0%,0%);stroke-opacity:1;stroke-miterlimit:10;" d="M 0 7.652344 L 0.101562 7.679688 L 0.777344 7.859375 L 2.457031 8.308594 L 5.410156 9.085938 L 9.710938 10.210938 L 15.242188 11.640625 L 21.726562 13.300781 L 28.804688 15.082031 L 36.117188 16.890625 L 43.347656 18.632812 L 50.257812 20.25 L 56.714844 21.695312 L 62.648438 22.949219 L 68.046875 24.003906 L 72.949219 24.863281 L 77.40625 25.53125 L 81.492188 26.023438 L 85.273438 26.347656 L 88.820312 26.519531 L 91.199219 26.550781 L 95.414062 26.4375 L 99.460938 26.074219 L 103.4375 25.433594 L 107.445312 24.496094 L 111.585938 23.238281 L 115.929688 21.648438 L 120.492188 19.746094 L 125.214844 17.582031 L 129.929688 15.265625 L 134.363281 12.976562 L 138.179688 10.925781 L 141.082031 9.320312 L 142.925781 8.273438 L 143.792969 7.773438 L 143.996094 7.65625 L 144 7.652344 "/>
</g>
</svg>
