<?xml version="1.0" encoding="UTF-8"?>
<svg xmlns="http://www.w3.org/2000/svg" xmlns:xlink="http://www.w3.org/1999/xlink" width="288pt" height="144pt" viewBox="0 0 288 144" version="1.1">
<g id="surface14">
<rect x="0" y="0" width="288" height="144" style="fill:rgb(100%,100%,100%);fill-opacity:1;stroke:none;"/>
<path style=" stroke:none;fill-rule:nonzero;fill:rgb(74.509804%,74.509804%,74.509804%);fill-opacity:1;" d="M 31.632812 86.398438 C 31.632812 90.179688 25.964844 90.179688 25.964844 86.398438 C 25.964844 82.621094 31.632812 82.621094 31.632812 86.398438 "/>
<path style=" stroke:none;fill-rule:nonzero;fill:rgb(74.509804%,74.509804%,74.509804%);fill-opacity:1;" d="M 60.433594 43.199219 C 60.433594 46.980469 54.765625 46.980469 54.765625 43.199219 C 54.765625 39.421875 60.433594 39.421875 60.433594 43.199219 "/>
<path style=" stroke:none;fill-rule:nonzero;fill:rgb(74.509804%,74.509804%,74.509804%);fill-opacity:1;" d="M 89.234375 43.199219 C 89.234375 46.980469 83.566406 46.980469 83.566406 43.199219 C 83.566406 39.421875 89.234375 39.421875 89.234375 43.199219 "/>
<path style=" stroke:none;fill-rule:nonzero;fill:rgb(74.509804%,74.509804%,74.509804%);fill-opacity:1;" d="M 118.035156 86.398438 C 118.035156 90.179688 112.367188 90.179688 112.367188 86.398438 C 112.367188 82.621094 118.035156 82.621094 118.035156 86.398438 "/>
<path style=" stroke:none;fill-rule:nonzero;fill:rgb(74.509804%,74.509804%,74.509804%);fill-opacity:1;" d="M 146.835938 43.199219 C 146.835938 46.980469 141.164062 46.980469 141.164062 43.199219 C 141.164062 39.421875 146.835938 39.421875 146.835938 43.199219 "/>
<path style=" stroke:none;fill-rule:nonzero;fill:rgb(74.509804%,74.509804%,74.509804%);fill-opacity:1;" d="M 175.632812 43.199219 C 175.632812 46.980469 169.964844 46.980469 169.964844 43.199219 C 169.964844 39.421875 175.632812 39.421875 175.632812 43.199219 "/>
<path style=" stroke:none;fill-rule:nonzero;fill:rgb(74.509804%,74.509804%,74.509804%);fill-opacity:1;" d="M 204.433594 86.398438 C 204.433594 90.179688 198.765625 90.179688 198.765625 86.398438 C 198.765625 82.621094 204.433594 82.621094 204.433594 86.398438 "/>
<path style="fill:none;stroke-width:2.25;stroke-linecap:round;stroke-linejoin:round;stroke:rgb(0%,0%,0%);stroke-opacity:1;stroke-miterlimit:10;" d="M 28.800781 86.398438 L 29.671875 85.105469 L 30.546875 83.835938 L 31.417969 82.589844 L 32.289062 81.375 L 33.164062 80.183594 L 34.035156 79.023438 L 34.910156 77.882812 L 35.78125 76.773438 L 36.65625 75.6875 L 37.527344 74.632812 L 38.398438 73.601562 L 39.273438 72.59375 L 40.144531 71.617188 L 41.019531 70.664062 L 41.890625 69.738281 L 42.761719 68.839844 L 43.636719 67.96875 L 44.507812 67.121094 L 45.382812 66.300781 L 46.253906 65.507812 L 47.128906 64.742188 L 48 64 L 48.871094 63.285156 L 49.746094 62.597656 L 50.617188 61.9375 L 51.492188 61.300781 L 52.363281 60.695312 L 53.238281 60.113281 L 54.109375 59.558594 L 54.980469 59.027344 L 55.855469 58.527344 L 56.726562 58.050781 L 57.601562 57.601562 L 58.472656 57.175781 L 59.34375 56.78125 L 60.21875 56.410156 L 61.089844 56.066406 L 61.964844 55.75 L 62.835938 55.457031 L 63.710938 55.195312 L 64.582031 54.957031 L 65.453125 54.742188 L 66.328125 54.558594 L 67.199219 54.398438 L 68.074219 54.269531 L 68.945312 54.160156 L 69.816406 54.082031 L 70.691406 54.03125 L 71.5625 54.003906 L 72.4375 54.003906 L 73.308594 54.03125 L 74.183594 54.082031 L 75.054688 54.160156 L 75.925781 54.269531 L 76.800781 54.398438 L 77.671875 54.558594 L 78.546875 54.742188 L 79.417969 54.957031 L 80.289062 55.195312 L 81.164062 55.457031 L 82.035156 55.75 L 82.910156 56.066406 L 83.78125 56.410156 L 84.65625 56.78125 L 85.527344 57.175781 L 86.398438 57.601562 L 87.273438 58.050781 L 88.144531 58.527344 L 89.019531 59.027344 L 89.890625 59.558594 L 90.761719 60.113281 L 91.636719 60.695312 L 92.507812 61.300781 L 93.382812 61.9375 L 94.253906 62.597656 L 95.128906 63.285156 L 96 64 L 96.871094 64.742188 L 97.746094 65.507812 L 98.617188 66.300781 L 99.492188 67.121094 L 100.363281 67.96875 L 101.238281 68.839844 L 102.109375 69.738281 L 102.980469 70.664062 L 103.855469 71.617188 L 104.726562 72.59375 L 105.601562 73.601562 L 106.472656 74.632812 L 107.34375 75.6875 L 108.21875 76.773438 L 109.089844 77.882812 L 109.964844 79.023438 L 110.835938 80.183594 L 111.710938 81.375 L 112.582031 82.589844 L 113.453125 83.835938 L 114.328125 85.105469 L 115.199219 86.398438 L 116.074219 85.105469 L 116.945312 83.835938 L 117.816406 82.589844 L 118.691406 81.375 L 119.5625 80.183594 L 120.4375 79.023438 L 121.308594 77.882812 L 122.183594 76.773438 L 123.054688 75.6875 L 123.925781 74.632812 L 124.800781 73.601562 L 125.671875 72.59375 L 126.546875 71.617188 L 127.417969 70.664062 L 128.289062 69.738281 L 129.164062 68.839844 L 130.035156 67.96875 L 130.910156 67.121094 L 131.78125 66.300781 L 132.65625 65.507812 L 133.527344 64.742188 L 134.398438 64 L 135.273438 63.285156 L 136.144531 62.597656 L 137.019531 61.9375 L 137.890625 61.300781 L 138.761719 60.695312 L 139.636719 60.113281 L 140.507812 59.558594 L 141.382812 59.027344 L 142.253906 58.527344 L 143.128906 58.050781 L 144 57.601562 L 144.871094 57.175781 L 145.746094 56.78125 L 146.617188 56.410156 L 147.492188 56.066406 L 148.363281 55.75 L 149.238281 55.457031 L 150.109375 55.195312 L 150.980469 54.957031 L 151.855469 54.742188 L 152.726562 54.558594 L 153.601562 54.398438 L 154.472656 54.269531 L 155.34375 54.160156 L 156.21875 54.082031 L 157.089844 54.03125 L 157.964844 54.003906 L 158.835938 54.003906 L 159.710938 54.03125 L 160.582031 54.082031 L 161.453125 54.160156 L 162.328125 54.269531 L 163.199219 54.398438 L 164.074219 54.558594 L 164.945312 54.742188 L 165.816406 54.957031 L 166.691406 55.195312 L 167.5625 55.457031 L 168.4375 55.75 L 169.308594 56.066406 L 170.183594 56.410156 L 171.054688 56.78125 L 171.925781 57.175781 L 172.800781 57.601562 L 173.671875 58.050781 L 174.546875 58.527344 L 175.417969 59.027344 L 176.289062 59.558594 L 177.164062 60.113281 L 178.035156 60.695312 L 178.910156 61.300781 L 179.78125 61.9375 L 180.65625 62.597656 L 181.527344 63.285156 L 182.398438 64 L 183.273438 64.742188 L 184.144531 65.507812 L 185.019531 66.300781 L 185.890625 67.121094 L 186.761719 67.96875 L 187.636719 68.839844 L 188.507812 69.738281 L 189.382812 70.664062 L 190.253906 71.617188 L 191.128906 72.59375 L 192 73.601562 L 192.871094 74.632812 L 193.746094 75.6875 L 194.617188 76.773438 L 195.492188 77.882812 L 196.363281 79.023438 L 197.238281 80.183594 L 198.109375 81.375 L 198.980469 82.589844 L 199.855469 83.835938 L 200.726562 85.105469 L 201.601562 86.398438 "/>
</g>
</svg>
