<?xml version="1.0" encoding="UTF-8"?>
<svg xmlns="http://www.w3.org/2000/svg" xmlns:xlink="http://www.w3.org/1999/xlink" width="432pt" height="144pt" viewBox="0 0 432 144" version="1.1">
<g id="surface24">
<rect x="0" y="0" width="432" height="144" style="fill:rgb(100%,100%,100%);fill-opacity:1;stroke:none;"/>
<path style=" stroke:none;fill-rule:nonzero;fill:rgb(74.509804%,74.509804%,74.509804%);fill-opacity:1;" d="M 31.632812 72 C 31.632812 75.78125 25.964844 75.78125 25.964844 72 C 25.964844 68.21875 31.632812 68.21875 31.632812 72 "/>
<path style=" stroke:none;fill-rule:nonzero;fill:rgb(74.509804%,74.509804%,74.509804%);fill-opacity:1;" d="M 31.632812 28.800781 C 31.632812 32.578125 25.964844 32.578125 25.964844 28.800781 C 25.964844 25.019531 31.632812 25.019531 31.632812 28.800781 "/>
<path style=" stroke:none;fill-rule:nonzero;fill:rgb(74.509804%,74.509804%,74.509804%);fill-opacity:1;" d="M 118.035156 28.800781 C 118.035156 32.578125 112.367188 32.578125 112.367188 28.800781 C 112.367188 25.019531 118.035156 25.019531 118.035156 28.800781 "/>
<path style=" stroke:none;fill-rule:nonzero;fill:rgb(74.509804%,74.509804%,74.509804%);fill-opacity:1;" d="M 118.035156 72 C 118.035156 75.78125 112.367188 75.78125 112.367188 72 C 112.367188 68.21875 118.035156 68.21875 118.035156 72 "/>
<path style=" stroke:none;fill-rule:nonzero;fill:rgb(74.509804%,74.509804%,74.509804%);fill-opacity:1;" d="M 118.035156 115.199219 C 118.035156 118.980469 112.367188 118.980469 112.367188 115.199219 C 112.367188 111.421875 118.035156 111.421875 118.035156 115.199219 "/>
<path style=" stroke:none;fill-rule:nonzero;fill:rgb(74.509804%,74.509804%,74.509804%);fill-opacity:1;" d="M 31.632812 115.199219 C 31.632812 118.980469 25.964844 118.980469 25.964844 115.199219 C 25.964844 111.421875 31.632812 111.421875 31.632812 115.199219 "/>
<path style="fill:none;stroke-width:2.25;stroke-linecap:round;stroke-linejoin:round;stroke:rgb(0%,0%,0%);stroke-opacity:1;stroke-miterlimit:10;" d="M 28.800781 72 L 28.828125 70.703125 L 28.90625 69.433594 L 29.035156 68.191406 L 29.210938 66.976562 L 29.4375 65.785156 L 29.714844 64.621094 L 30.035156 63.484375 L 30.402344 62.375 L 30.8125 61.289062 L 31.265625 60.230469 L 31.761719 59.199219 L 32.300781 58.195312 L 32.878906 57.214844 L 33.496094 56.265625 L 34.148438 55.339844 L 34.839844 54.441406 L 35.566406 53.566406 L 36.328125 52.71875 L 37.125 51.902344 L 37.953125 51.109375 L 38.8125 50.339844 L 39.703125 49.601562 L 40.625 48.886719 L 41.570312 48.199219 L 42.546875 47.539062 L 43.546875 46.902344 L 44.574219 46.292969 L 45.625 45.710938 L 46.699219 45.15625 L 47.792969 44.628906 L 48.910156 44.125 L 50.046875 43.648438 L 51.199219 43.199219 L 52.371094 42.777344 L 53.5625 42.378906 L 54.765625 42.011719 L 55.984375 41.667969 L 57.214844 41.347656 L 58.460938 41.058594 L 59.714844 40.792969 L 60.980469 40.554688 L 62.257812 40.34375 L 63.539062 40.160156 L 64.828125 40 L 66.125 39.867188 L 67.425781 39.761719 L 68.730469 39.683594 L 70.035156 39.628906 L 71.34375 39.601562 L 72.65625 39.601562 L 73.964844 39.628906 L 75.269531 39.683594 L 76.574219 39.761719 L 77.875 39.867188 L 79.171875 40 L 80.460938 40.160156 L 81.742188 40.34375 L 83.019531 40.554688 L 84.285156 40.792969 L 85.539062 41.058594 L 86.785156 41.347656 L 88.015625 41.667969 L 89.234375 42.011719 L 90.4375 42.378906 L 91.628906 42.777344 L 92.800781 43.199219 L 93.953125 43.648438 L 95.089844 44.125 L 96.207031 44.628906 L 97.300781 45.15625 L 98.375 45.710938 L 99.425781 46.292969 L 100.453125 46.902344 L 101.453125 47.539062 L 102.429688 48.199219 L 103.375 48.886719 L 104.296875 49.601562 L 105.1875 50.339844 L 106.046875 51.109375 L 106.875 51.902344 L 107.671875 52.71875 L 108.433594 53.566406 L 109.160156 54.441406 L 109.851562 55.339844 L 110.503906 56.265625 L 111.121094 57.214844 L 111.699219 58.195312 L 112.238281 59.199219 L 112.734375 60.230469 L 113.1875 61.289062 L 113.597656 62.375 L 113.964844 63.484375 L 114.285156 64.621094 L 114.5625 65.785156 L 114.789062 66.976562 L 114.964844 68.191406 L 115.09375 69.433594 L 115.171875 70.703125 L 115.199219 72 "/>
<path style="fill:none;stroke-width:2.25;stroke-linecap:round;stroke-linejoin:round;stroke:rgb(0%,0%,0%);stroke-opacity:1;stroke-miterlimit:10;" d="M 172.800781 72 L 172.828125 70.703125 L 172.90625 69.433594 L 173.035156 68.191406 L 173.210938 66.976562 L 173.4375 65.785156 L 173.714844 64.621094 L 174.035156 63.484375 L 174.402344 62.375 L 174.8125 61.289062 L 175.265625 60.230469 L 175.761719 59.199219 L 176.300781 58.195312 L 176.878906 57.214844 L 177.496094 56.265625 L 178.148438 55.339844 L 178.839844 54.441406 L 179.566406 53.566406 L 180.328125 52.71875 L 181.125 51.902344 L 181.953125 51.109375 L 182.8125 50.339844 L 183.703125 49.601562 L 184.625 48.886719 L 185.570312 48.199219 L 186.546875 47.539062 L 187.546875 46.902344 L 188.574219 46.292969 L 189.625 45.710938 L 190.699219 45.15625 L 191.792969 44.628906 L 192.910156 44.125 L 194.046875 43.648438 L 195.199219 43.199219 L 196.371094 42.777344 L 197.5625 42.378906 L 198.765625 42.011719 L 199.984375 41.667969 L 201.214844 41.347656 L 202.460938 41.058594 L 203.714844 40.792969 L 204.980469 40.554688 L 206.257812 40.34375 L 207.539062 40.160156 L 208.828125 40 L 210.125 39.867188 L 211.425781 39.761719 L 212.730469 39.683594 L 214.035156 39.628906 L 215.34375 39.601562 L 216.65625 39.601562 L 217.964844 39.628906 L 219.269531 39.683594 L 220.574219 39.761719 L 221.875 39.867188 L 223.171875 40 L 224.460938 40.160156 L 225.742188 40.34375 L 227.019531 40.554688 L 228.285156 40.792969 L 229.539062 41.058594 L 230.785156 41.347656 L 232.015625 41.667969 L 233.234375 42.011719 L 234.4375 42.378906 L 235.628906 42.777344 L 236.800781 43.199219 L 237.953125 43.648438 L 239.089844 44.125 L 240.207031 44.628906 L 241.300781 45.15625 L 242.375 45.710938 L 243.425781 46.292969 L 244.453125 46.902344 L 245.453125 47.539062 L 246.429688 48.199219 L 247.375 48.886719 L 248.296875 49.601562 L 249.1875 50.339844 L 250.046875 51.109375 L 250.875 51.902344 L 251.671875 52.71875 L 252.433594 53.566406 L 253.160156 54.441406 L 253.851562 55.339844 L 254.503906 56.265625 L 255.121094 57.214844 L 255.699219 58.195312 L 256.238281 59.199219 L 256.734375 60.230469 L 257.1875 61.289062 L 257.597656 62.375 L 257.964844 63.484375 L 258.285156 64.621094 L 258.5625 65.785156 L 258.789062 66.976562 L 258.964844 68.191406 L 259.09375 69.433594 L 259.171875 70.703125 L 259.199219 72 L 259.171875 73.296875 L 259.09375 74.566406 L 258.964844 75.808594 L 258.789062 77.023438 L 258.5625 78.214844 L 258.285156 79.378906 L 257.964844 80.515625 L 257.597656 81.625 L 257.1875 82.710938 L 256.734375 83.769531 L 256.238281 84.800781 L 255.699219 85.804688 L 255.121094 86.785156 L 254.503906 87.734375 L 253.851562 88.660156 L 253.160156 89.558594 L 252.433594 90.433594 L 251.671875 91.28125 L 250.875 92.097656 L 250.046875 92.890625 L 249.1875 93.660156 L 248.296875 94.398438 L 247.375 95.113281 L 246.429688 95.800781 L 245.453125 96.460938 L 244.453125 97.097656 L 243.425781 97.707031 L 242.375 98.289062 L 241.300781 98.84375 L 240.207031 99.371094 L 239.089844 99.875 L 237.953125 100.351562 L 236.800781 100.800781 L 235.628906 101.222656 L 234.4375 101.621094 L 233.234375 101.988281 L 232.015625 102.332031 L 230.785156 102.652344 L 229.539062 102.941406 L 228.285156 103.207031 L 227.019531 103.445312 L 225.742188 103.65625 L 224.460938 103.839844 L 223.171875 104 L 221.875 104.132812 L 220.574219 104.238281 L 219.269531 104.316406 L 217.964844 104.371094 L 216.65625 104.398438 L 215.34375 104.398438 L 214.035156 104.371094 L 212.730469 104.316406 L 211.425781 104.238281 L 210.125 104.132812 L 208.828125 104 L 207.539062 103.839844 L 206.257812 103.65625 L 204.980469 103.445312 L 203.714844 103.207031 L 202.460938 102.941406 L 201.214844 102.652344 L 199.984375 102.332031 L 198.765625 101.988281 L 197.5625 101.621094 L 196.371094 101.222656 L 195.199219 100.800781 L 194.046875 100.351562 L 192.910156 99.875 L 191.792969 99.371094 L 190.699219 98.84375 L 189.625 98.289062 L 188.574219 97.707031 L 187.546875 97.097656 L 186.546875 96.460938 L 185.570312 95.800781 L 184.625 95.113281 L 183.703125 94.398438 L 182.8125 93.660156 L 181.953125 92.890625 L 181.125 92.097656 L 180.328125 91.28125 L 179.566406 90.433594 L 178.839844 89.558594 L 178.148438 88.660156 L 177.496094 87.734375 L 176.878906 86.785156 L 176.300781 85.804688 L 175.761719 84.800781 L 175.265625 83.769531 L 174.8125 82.710938 L 174.402344 81.625 L 174.035156 80.515625 L 173.714844 79.378906 L 173.4375 78.214844 L 173.210938 77.023438 L 173.035156 75.808594 L 172.90625 74.566406 L 172.828125 73.296875 L 172.800781 72 "/>
<path style="fill-rule:nonzero;fill:rgb(74.509804%,74.509804%,74.509804%);fill-opacity:1;stroke-width:2.25;stroke-linecap:round;stroke-linejoin:round;stroke:rgb(0%,0%,0%);stroke-opacity:1;stroke-miterlimit:10;" d="M 316.800781 72 L 316.828125 70.703125 L 316.90625 69.433594 L 317.035156 68.191406 L 317.210938 66.976562 L 317.4375 65.785156 L 317.714844 64.621094 L 318.035156 63.484375 L 318.402344 62.375 L 318.8125 61.289062 L 319.265625 60.230469 L 319.761719 59.199219 L 320.300781 58.195312 L 320.878906 57.214844 L 321.496094 56.265625 L 322.148438 55.339844 L 322.839844 54.441406 L 323.566406 53.566406 L 324.328125 52.71875 L 325.125 51.902344 L 325.953125 51.109375 L 326.8125 50.339844 L 327.703125 49.601562 L 328.625 48.886719 L 329.570312 48.199219 L 330.546875 47.539062 L 331.546875 46.902344 L 332.574219 46.292969 L 333.625 45.710938 L 334.699219 45.15625 L 335.792969 44.628906 L 336.910156 44.125 L 338.046875 43.648438 L 339.199219 43.199219 L 340.371094 42.777344 L 341.5625 42.378906 L 342.765625 42.011719 L 343.984375 41.667969 L 345.214844 41.347656 L 346.460938 41.058594 L 347.714844 40.792969 L 348.980469 40.554688 L 350.257812 40.34375 L 351.539062 40.160156 L 352.828125 40 L 354.125 39.867188 L 355.425781 39.761719 L 356.730469 39.683594 L 358.035156 39.628906 L 359.34375 39.601562 L 360.65625 39.601562 L 361.964844 39.628906 L 363.269531 39.683594 L 364.574219 39.761719 L 365.875 39.867188 L 367.171875 40 L 368.460938 40.160156 L 369.742188 40.34375 L 371.019531 40.554688 L 372.285156 40.792969 L 373.539062 41.058594 L 374.785156 41.347656 L 376.015625 41.667969 L 377.234375 42.011719 L 378.4375 42.378906 L 379.628906 42.777344 L 380.800781 43.199219 L 381.953125 43.648438 L 383.089844 44.125 L 384.207031 44.628906 L 385.300781 45.15625 L 386.375 45.710938 L 387.425781 46.292969 L 388.453125 46.902344 L 389.453125 47.539062 L 390.429688 48.199219 L 391.375 48.886719 L 392.296875 49.601562 L 393.1875 50.339844 L 394.046875 51.109375 L 394.875 51.902344 L 395.671875 52.71875 L 396.433594 53.566406 L 397.160156 54.441406 L 397.851562 55.339844 L 398.503906 56.265625 L 399.121094 57.214844 L 399.699219 58.195312 L 400.238281 59.199219 L 400.734375 60.230469 L 401.1875 61.289062 L 401.597656 62.375 L 401.964844 63.484375 L 402.285156 64.621094 L 402.5625 65.785156 L 402.789062 66.976562 L 402.964844 68.191406 L 403.09375 69.433594 L 403.171875 70.703125 L 403.199219 72 L 403.171875 73.296875 L 403.09375 74.566406 L 402.964844 75.808594 L 402.789062 77.023438 L 402.5625 78.214844 L 402.285156 79.378906 L 401.964844 80.515625 L 401.597656 81.625 L 401.1875 82.710938 L 400.734375 83.769531 L 400.238281 84.800781 L 399.699219 85.804688 L 399.121094 86.785156 L 398.503906 87.734375 L 397.851562 88.660156 L 397.160156 89.558594 L 396.433594 90.433594 L 395.671875 91.28125 L 394.875 92.097656 L 394.046875 92.890625 L 393.1875 93.660156 L 392.296875 94.398438 L 391.375 95.113281 L 390.429688 95.800781 L 389.453125 96.460938 L 388.453125 97.097656 L 387.425781 97.707031 L 386.375 98.289062 L 385.300781 98.84375 L 384.207031 99.371094 L 383.089844 99.875 L 381.953125 100.351562 L 380.800781 100.800781 L 379.628906 101.222656 L 378.4375 101.621094 L 377.234375 101.988281 L 376.015625 102.332031 L 374.785156 102.652344 L 373.539062 102.941406 L 372.285156 103.207031 L 371.019531 103.445312 L 369.742188 103.65625 L 368.460938 103.839844 L 367.171875 104 L 365.875 104.132812 L 364.574219 104.238281 L 363.269531 104.316406 L 361.964844 104.371094 L 360.65625 104.398438 L 359.34375 104.398438 L 358.035156 104.371094 L 356.730469 104.316406 L 355.425781 104.238281 L 354.125 104.132812 L 352.828125 104 L 351.539062 103.839844 L 350.257812 103.65625 L 348.980469 103.445312 L 347.714844 103.207031 L 346.460938 102.941406 L 345.214844 102.652344 L 343.984375 102.332031 L 342.765625 101.988281 L 341.5625 101.621094 L 340.371094 101.222656 L 339.199219 100.800781 L 338.046875 100.351562 L 336.910156 99.875 L 335.792969 99.371094 L 334.699219 98.84375 L 333.625 98.289062 L 332.574219 97.707031 L 331.546875 97.097656 L 330.546875 96.460938 L 329.570312 95.800781 L 328.625 95.113281 L 327.703125 94.398438 L 326.8125 93.660156 L 325.953125 92.890625 L 325.125 92.097656 L 324.328125 91.28125 L 323.566406 90.433594 L 322.839844 89.558594 L 322.148438 88.660156 L 321.496094 87.734375 L 320.878906 86.785156 L 320.300781 85.804688 L 319.761719 84.800781 L 319.265625 83.769531 L 318.8125 82.710938 L 318.402344 81.625 L 318.035156 80.515625 L 317.714844 79.378906 L 317.4375 78.214844 L 317.210938 77.023438 L 317.035156 75.808594 L 316.90625 74.566406 L 316.828125 73.296875 Z M 316.800781 72 "/>
</g>
</svg>
