<?xml version="1.0" encoding="UTF-8"?>
<svg xmlns="http://www.w3.org/2000/svg" xmlns:xlink="http://www.w3.org/1999/xlink" width="288pt" height="144pt" viewBox="0 0 288 144" version="1.1">
<g id="surface59">
<rect x="0" y="0" width="288" height="144" style="fill:rgb(100%,100%,100%);fill-opacity:1;stroke:none;"/>
<path style="fill-rule:nonzero;fill:rgb(0%,0%,0%);fill-opacity:1;stroke-width:0.75;stroke-linecap:round;stroke-linejoin:round;stroke:rgb(0%,0%,0%);stroke-opacity:1;stroke-miterlimit:10;" d="M 162.046875 124.230469 L 163.097656 124.191406 L 164.15625 124.125 L 165.210938 124.03125 L 166.273438 123.902344 L 167.339844 123.75 L 168.40625 123.5625 L 169.476562 123.351562 L 170.546875 123.109375 L 171.621094 122.835938 L 172.695312 122.535156 L 173.773438 122.207031 L 174.851562 121.851562 L 175.933594 121.46875 L 177.015625 121.054688 L 178.101562 120.617188 L 179.1875 120.148438 L 180.273438 119.65625 L 181.363281 119.136719 L 182.457031 118.589844 L 183.550781 118.015625 L 184.648438 117.417969 L 185.746094 116.792969 L 186.847656 116.140625 L 187.953125 115.464844 L 189.0625 114.761719 L 190.171875 114.035156 L 191.285156 113.28125 L 192.40625 112.503906 L 193.527344 111.699219 L 194.652344 110.871094 L 195.785156 110.019531 L 196.917969 109.140625 L 198.058594 108.238281 L 199.203125 107.3125 L 200.355469 106.359375 L 201.507812 105.382812 L 202.671875 104.382812 L 203.835938 103.355469 L 205.007812 102.304688 L 206.1875 101.230469 L 207.371094 100.132812 L 208.5625 99.007812 L 209.761719 97.859375 L 210.964844 96.683594 L 212.175781 95.484375 L 213.394531 94.261719 L 189.808594 78.539062 L 189.277344 79.90625 L 188.746094 81.246094 L 188.203125 82.558594 L 187.65625 83.84375 L 187.101562 85.097656 L 186.539062 86.324219 L 185.972656 87.527344 L 185.398438 88.695312 L 184.820312 89.839844 L 184.234375 90.953125 L 183.644531 92.039062 L 183.050781 93.097656 L 182.449219 94.128906 L 181.84375 95.128906 L 181.234375 96.101562 L 180.617188 97.046875 L 180 97.964844 L 179.375 98.855469 L 178.75 99.714844 L 178.117188 100.550781 L 177.484375 101.355469 L 176.847656 102.136719 L 176.207031 102.886719 L 175.5625 103.613281 L 174.917969 104.308594 L 174.265625 104.980469 L 173.617188 105.625 L 172.960938 106.238281 L 172.308594 106.832031 L 171.648438 107.394531 L 170.992188 107.933594 L 170.328125 108.445312 L 169.667969 108.933594 L 169 109.394531 L 168.335938 109.832031 L 167.667969 110.242188 L 166.996094 110.632812 L 166.324219 110.996094 L 165.652344 111.332031 L 164.976562 111.648438 L 164.296875 111.941406 L 163.617188 112.207031 L 162.933594 112.453125 L 162.246094 112.675781 L 161.554688 112.871094 L 160.863281 113.046875 L 160.164062 113.199219 L 159.460938 113.328125 L 158.753906 113.433594 L 158.042969 113.515625 L 157.328125 113.574219 L 156.605469 113.605469 L 155.878906 113.617188 L 155.144531 113.601562 L 154.40625 113.566406 L 153.660156 113.5 L 152.910156 113.414062 L 152.152344 113.300781 L 151.390625 113.160156 L 150.621094 112.996094 L 149.84375 112.804688 L 149.0625 112.585938 L 148.273438 112.339844 L 147.480469 112.066406 L 146.683594 111.765625 L 145.878906 111.4375 L 145.070312 111.082031 L 144.257812 110.699219 L 143.441406 110.285156 L 142.621094 109.84375 L 141.792969 109.375 L 140.964844 108.875 L 140.132812 108.347656 L 139.300781 107.789062 L 138.460938 107.203125 L 137.625 106.585938 L 136.78125 105.941406 L 135.9375 105.265625 L 135.09375 104.5625 L 134.25 103.828125 L 133.40625 103.066406 L 132.558594 102.273438 L 131.710938 101.449219 L 130.867188 100.597656 L 130.019531 99.714844 L 129.175781 98.804688 L 128.332031 97.863281 L 127.492188 96.894531 L 126.652344 95.894531 L 125.8125 94.863281 L 124.976562 93.804688 L 124.140625 92.714844 L 123.308594 91.597656 L 122.480469 90.453125 L 121.652344 89.277344 L 120.832031 88.070312 L 120.007812 86.835938 L 119.191406 85.574219 L 118.378906 84.28125 L 117.53125 82.925781 L 116.683594 81.59375 L 115.835938 80.285156 L 114.988281 78.996094 L 114.140625 77.734375 L 113.292969 76.496094 L 112.445312 75.277344 L 111.597656 74.085938 L 110.75 72.914062 L 109.898438 71.769531 L 109.046875 70.644531 L 108.195312 69.542969 L 107.335938 68.46875 L 106.480469 67.414062 L 105.617188 66.382812 L 104.753906 65.375 L 103.882812 64.390625 L 103.011719 63.429688 L 102.136719 62.496094 L 101.253906 61.582031 L 100.371094 60.691406 L 99.480469 59.824219 L 98.582031 58.984375 L 97.679688 58.164062 L 96.769531 57.371094 L 95.855469 56.601562 L 94.933594 55.855469 L 94.003906 55.136719 L 93.070312 54.441406 L 92.125 53.769531 L 91.171875 53.125 L 90.214844 52.503906 L 89.242188 51.910156 L 88.265625 51.34375 L 87.28125 50.804688 L 86.285156 50.292969 L 85.28125 49.804688 L 84.265625 49.347656 L 83.242188 48.917969 L 82.210938 48.519531 L 81.171875 48.148438 L 80.121094 47.808594 L 79.0625 47.5 L 77.996094 47.21875 L 76.921875 46.972656 L 75.839844 46.753906 L 74.75 46.570312 L 73.65625 46.421875 L 72.554688 46.300781 L 71.445312 46.214844 L 70.332031 46.164062 L 69.214844 46.140625 L 68.097656 46.15625 L 66.972656 46.203125 L 65.847656 46.28125 L 64.71875 46.394531 L 63.589844 46.542969 L 62.460938 46.71875 L 61.328125 46.929688 L 60.199219 47.171875 L 59.070312 47.445312 L 57.941406 47.75 L 56.8125 48.089844 L 55.6875 48.457031 L 54.5625 48.855469 L 53.441406 49.28125 L 52.320312 49.738281 L 51.199219 50.226562 L 50.085938 50.742188 L 48.96875 51.285156 L 47.855469 51.855469 L 46.746094 52.457031 L 45.636719 53.082031 L 44.53125 53.738281 L 43.425781 54.417969 L 42.320312 55.128906 L 41.21875 55.863281 L 40.117188 56.625 L 39.015625 57.410156 L 37.917969 58.226562 L 36.820312 59.066406 L 35.722656 59.929688 L 34.625 60.824219 L 33.527344 61.738281 L 32.433594 62.683594 L 31.335938 63.652344 L 30.238281 64.644531 L 29.140625 65.664062 L 28.042969 66.707031 L 26.945312 67.777344 L 25.84375 68.871094 L 24.746094 69.992188 L 23.644531 71.136719 L 22.542969 72.308594 L 21.4375 73.503906 L 20.332031 74.722656 L 19.226562 75.96875 L 18.117188 77.242188 L 17.007812 78.539062 L 40.59375 94.261719 L 41.226562 92.964844 L 41.863281 91.699219 L 42.503906 90.457031 L 43.144531 89.246094 L 43.785156 88.0625 L 44.429688 86.90625 L 45.074219 85.777344 L 45.71875 84.675781 L 46.363281 83.601562 L 47.011719 82.554688 L 47.660156 81.535156 L 48.308594 80.546875 L 48.957031 79.582031 L 49.605469 78.644531 L 50.253906 77.738281 L 50.902344 76.855469 L 51.550781 76.003906 L 52.199219 75.175781 L 52.84375 74.375 L 53.492188 73.601562 L 54.136719 72.855469 L 54.78125 72.136719 L 55.425781 71.445312 L 56.066406 70.777344 L 56.707031 70.136719 L 57.34375 69.523438 L 57.980469 68.933594 L 58.617188 68.371094 L 59.25 67.832031 L 59.878906 67.316406 L 60.507812 66.828125 L 61.132812 66.359375 L 61.757812 65.917969 L 62.382812 65.5 L 63.003906 65.105469 L 63.621094 64.730469 L 64.242188 64.378906 L 64.855469 64.050781 L 65.472656 63.742188 L 66.089844 63.457031 L 66.703125 63.191406 L 67.320312 62.945312 L 67.933594 62.722656 L 68.554688 62.519531 L 69.171875 62.332031 L 69.792969 62.167969 L 70.417969 62.023438 L 71.046875 61.898438 L 71.679688 61.792969 L 72.320312 61.707031 L 72.964844 61.640625 L 73.613281 61.59375 L 74.269531 61.566406 L 74.933594 61.5625 L 75.601562 61.578125 L 76.28125 61.617188 L 76.96875 61.679688 L 77.664062 61.761719 L 78.371094 61.867188 L 79.082031 61.996094 L 79.804688 62.148438 L 80.539062 62.328125 L 81.277344 62.527344 L 82.027344 62.757812 L 82.789062 63.007812 L 83.554688 63.289062 L 84.332031 63.59375 L 85.117188 63.925781 L 85.910156 64.285156 L 86.710938 64.675781 L 87.523438 65.089844 L 88.339844 65.53125 L 89.160156 66.003906 L 89.992188 66.503906 L 90.828125 67.03125 L 91.671875 67.589844 L 92.519531 68.175781 L 93.375 68.789062 L 94.234375 69.433594 L 95.101562 70.105469 L 95.96875 70.808594 L 96.84375 71.542969 L 97.71875 72.304688 L 98.601562 73.09375 L 99.484375 73.914062 L 100.371094 74.765625 L 101.261719 75.644531 L 102.152344 76.554688 L 103.046875 77.492188 L 103.941406 78.464844 L 104.835938 79.460938 L 105.734375 80.488281 L 106.632812 81.546875 L 107.53125 82.636719 L 108.429688 83.753906 L 109.328125 84.898438 L 110.226562 86.078125 L 111.125 87.285156 L 112.019531 88.519531 L 112.953125 89.820312 L 113.882812 91.09375 L 114.804688 92.347656 L 115.726562 93.574219 L 116.648438 94.777344 L 117.5625 95.957031 L 118.476562 97.113281 L 119.386719 98.246094 L 120.296875 99.359375 L 121.203125 100.445312 L 122.109375 101.507812 L 123.011719 102.546875 L 123.914062 103.5625 L 124.816406 104.554688 L 125.714844 105.523438 L 126.613281 106.472656 L 127.515625 107.394531 L 128.414062 108.292969 L 129.3125 109.167969 L 130.214844 110.023438 L 131.117188 110.851562 L 132.019531 111.65625 L 132.921875 112.441406 L 133.828125 113.199219 L 134.738281 113.9375 L 135.648438 114.648438 L 136.5625 115.335938 L 137.476562 116 L 138.398438 116.640625 L 139.320312 117.257812 L 140.25 117.851562 L 141.183594 118.417969 L 142.121094 118.960938 L 143.0625 119.480469 L 144.007812 119.972656 L 144.960938 120.441406 L 145.917969 120.882812 L 146.882812 121.300781 L 147.851562 121.6875 L 148.828125 122.050781 L 149.8125 122.390625 L 150.800781 122.699219 L 151.792969 122.980469 L 152.792969 123.234375 L 153.800781 123.460938 L 154.8125 123.660156 L 155.832031 123.828125 L 156.855469 123.96875 L 157.882812 124.078125 L 158.917969 124.160156 L 159.957031 124.214844 L 161 124.234375 Z M 162.046875 124.230469 "/>
</g>
</svg>
