<?xml version="1.0" encoding="UTF-8"?>
<svg xmlns="http://www.w3.org/2000/svg" xmlns:xlink="http://www.w3.org/1999/xlink" width="432pt" height="216pt" viewBox="0 0 432 216" version="1.1">
<g id="surface74">
<rect x="0" y="0" width="432" height="216" style="fill:rgb(100%,100%,100%);fill-opacity:1;stroke:none;"/>
<path style="fill-rule:nonzero;fill:rgb(0%,0%,0%);fill-opacity:1;stroke-width:0.75;stroke-linecap:round;stroke-linejoin:round;stroke:rgb(0%,0%,0%);stroke-opacity:1;stroke-miterlimit:10;" d="M 45.734375 76.867188 L 46.507812 75.730469 L 47.308594 74.621094 L 48.140625 73.546875 L 48.996094 72.496094 L 49.878906 71.480469 L 50.785156 70.488281 L 51.71875 69.527344 L 52.675781 68.59375 L 53.660156 67.6875 L 54.667969 66.804688 L 55.699219 65.949219 L 56.753906 65.121094 L 57.832031 64.316406 L 58.933594 63.539062 L 60.058594 62.785156 L 61.203125 62.054688 L 62.367188 61.351562 L 63.554688 60.667969 L 64.761719 60.015625 L 65.988281 59.378906 L 67.234375 58.773438 L 68.496094 58.1875 L 69.78125 57.625 L 71.082031 57.085938 L 72.398438 56.574219 L 73.730469 56.082031 L 75.078125 55.617188 L 76.441406 55.171875 L 77.820312 54.753906 L 79.210938 54.355469 L 80.617188 53.984375 L 82.03125 53.636719 L 83.460938 53.308594 L 84.898438 53.007812 L 86.347656 52.726562 L 87.804688 52.472656 L 89.269531 52.242188 L 90.746094 52.03125 L 92.226562 51.847656 L 93.714844 51.6875 L 95.207031 51.546875 L 96.703125 51.433594 L 98.207031 51.34375 L 99.710938 51.277344 L 101.214844 51.230469 L 102.722656 51.210938 L 104.230469 51.214844 L 105.738281 51.238281 L 107.246094 51.289062 L 108.753906 51.359375 L 110.253906 51.457031 L 111.753906 51.574219 L 113.246094 51.71875 L 114.738281 51.882812 L 116.21875 52.070312 L 117.695312 52.28125 L 119.164062 52.515625 L 120.621094 52.769531 L 122.070312 53.050781 L 123.511719 53.351562 L 124.9375 53.675781 L 126.355469 54.019531 L 127.757812 54.386719 L 129.144531 54.777344 L 130.519531 55.191406 L 131.878906 55.625 L 133.222656 56.078125 L 134.546875 56.554688 L 135.851562 57.050781 L 137.140625 57.566406 L 138.410156 58.105469 L 139.65625 58.664062 L 140.882812 59.242188 L 142.085938 59.839844 L 143.269531 60.457031 L 144.425781 61.09375 L 145.558594 61.75 L 146.667969 62.421875 L 147.75 63.117188 L 148.804688 63.824219 L 149.835938 64.550781 L 150.835938 65.296875 L 151.808594 66.058594 L 152.753906 66.835938 L 153.671875 67.628906 L 154.558594 68.441406 L 155.414062 69.265625 L 156.242188 70.105469 L 157.039062 70.960938 L 157.804688 71.832031 L 158.539062 72.71875 L 159.242188 73.621094 L 159.914062 74.535156 L 160.554688 75.46875 L 161.167969 76.414062 L 161.746094 77.375 L 162.292969 78.351562 L 162.808594 79.34375 L 163.292969 80.355469 L 172.230469 98.617188 L 182.308594 80.355469 L 182.855469 79.378906 L 183.433594 78.425781 L 184.039062 77.488281 L 184.675781 76.574219 L 185.335938 75.675781 L 186.03125 74.800781 L 186.75 73.9375 L 187.5 73.097656 L 188.277344 72.273438 L 189.082031 71.464844 L 189.914062 70.675781 L 190.773438 69.902344 L 191.664062 69.148438 L 192.578125 68.414062 L 193.519531 67.695312 L 194.488281 66.992188 L 195.480469 66.3125 L 196.5 65.648438 L 197.546875 65 L 198.613281 64.375 L 199.707031 63.769531 L 200.820312 63.179688 L 201.960938 62.613281 L 203.121094 62.0625 L 204.300781 61.535156 L 205.503906 61.027344 L 206.722656 60.542969 L 207.964844 60.078125 L 209.222656 59.632812 L 210.496094 59.210938 L 211.789062 58.808594 L 213.097656 58.429688 L 214.421875 58.070312 L 215.757812 57.734375 L 217.105469 57.421875 L 218.46875 57.132812 L 219.84375 56.863281 L 221.226562 56.621094 L 222.621094 56.398438 L 224.023438 56.195312 L 225.433594 56.019531 L 226.847656 55.867188 L 228.273438 55.738281 L 229.699219 55.628906 L 231.132812 55.546875 L 232.566406 55.484375 L 234.003906 55.449219 L 235.441406 55.433594 L 236.878906 55.445312 L 238.320312 55.476562 L 239.753906 55.53125 L 241.191406 55.613281 L 242.621094 55.714844 L 244.046875 55.839844 L 245.46875 55.988281 L 246.882812 56.160156 L 248.289062 56.355469 L 249.691406 56.574219 L 251.082031 56.816406 L 252.460938 57.078125 L 253.832031 57.363281 L 255.1875 57.671875 L 256.53125 58 L 257.863281 58.351562 L 259.179688 58.726562 L 260.480469 59.121094 L 261.765625 59.535156 L 263.03125 59.972656 L 264.277344 60.429688 L 265.507812 60.910156 L 266.714844 61.40625 L 267.902344 61.925781 L 269.070312 62.460938 L 270.210938 63.015625 L 271.332031 63.59375 L 272.425781 64.183594 L 273.496094 64.796875 L 274.542969 65.425781 L 275.558594 66.070312 L 276.550781 66.730469 L 277.515625 67.410156 L 278.449219 68.101562 L 279.355469 68.808594 L 280.234375 69.535156 L 281.082031 70.269531 L 281.898438 71.019531 L 282.683594 71.785156 L 283.441406 72.5625 L 284.167969 73.351562 L 284.863281 74.15625 L 285.527344 74.972656 L 286.160156 75.796875 L 286.761719 76.636719 L 287.332031 77.488281 L 287.871094 78.355469 L 288.382812 79.230469 L 288.859375 80.121094 L 289.304688 81.023438 L 289.722656 81.9375 L 295.664062 94.8125 L 321.867188 81.710938 L 315.078125 69.261719 L 314.144531 67.585938 L 313.167969 65.949219 L 312.140625 64.355469 L 311.074219 62.796875 L 309.964844 61.28125 L 308.8125 59.804688 L 307.625 58.371094 L 306.398438 56.976562 L 305.136719 55.621094 L 303.839844 54.308594 L 302.515625 53.035156 L 301.15625 51.804688 L 299.765625 50.613281 L 298.351562 49.457031 L 296.90625 48.34375 L 295.4375 47.269531 L 293.945312 46.230469 L 292.425781 45.234375 L 290.886719 44.269531 L 289.328125 43.34375 L 287.746094 42.457031 L 286.148438 41.605469 L 284.527344 40.785156 L 282.894531 40.003906 L 281.242188 39.257812 L 279.574219 38.542969 L 277.890625 37.863281 L 276.191406 37.21875 L 274.484375 36.605469 L 272.757812 36.027344 L 271.023438 35.476562 L 269.277344 34.964844 L 267.519531 34.480469 L 265.753906 34.027344 L 263.976562 33.609375 L 262.191406 33.21875 L 260.398438 32.863281 L 258.597656 32.535156 L 256.792969 32.238281 L 254.980469 31.972656 L 253.164062 31.738281 L 251.34375 31.53125 L 249.515625 31.355469 L 247.6875 31.210938 L 245.855469 31.09375 L 244.023438 31.007812 L 242.1875 30.953125 L 240.351562 30.925781 L 238.515625 30.929688 L 236.683594 30.960938 L 234.851562 31.023438 L 233.019531 31.117188 L 231.191406 31.238281 L 229.367188 31.390625 L 227.542969 31.570312 L 225.730469 31.78125 L 223.917969 32.019531 L 222.113281 32.289062 L 220.316406 32.589844 L 218.527344 32.917969 L 216.742188 33.277344 L 214.96875 33.667969 L 213.207031 34.085938 L 211.453125 34.539062 L 209.710938 35.015625 L 207.980469 35.527344 L 206.261719 36.070312 L 204.554688 36.644531 L 202.863281 37.246094 L 201.1875 37.882812 L 199.527344 38.546875 L 197.882812 39.246094 L 196.253906 39.976562 L 194.644531 40.738281 L 193.054688 41.53125 L 191.484375 42.359375 L 189.933594 43.21875 L 188.40625 44.113281 L 186.898438 45.039062 L 185.414062 46 L 183.957031 46.996094 L 182.523438 48.023438 L 181.117188 49.085938 L 179.742188 50.183594 L 178.390625 51.316406 L 177.070312 52.484375 L 175.785156 53.6875 L 174.53125 54.925781 L 173.308594 56.199219 L 172.335938 57.273438 L 171.773438 56.699219 L 170.515625 55.492188 L 169.226562 54.324219 L 167.90625 53.191406 L 166.558594 52.097656 L 165.183594 51.042969 L 163.785156 50.019531 L 162.355469 49.035156 L 160.90625 48.089844 L 159.433594 47.175781 L 157.9375 46.300781 L 156.421875 45.457031 L 154.886719 44.648438 L 153.332031 43.878906 L 151.757812 43.140625 L 150.167969 42.433594 L 148.558594 41.761719 L 146.9375 41.125 L 145.300781 40.519531 L 143.648438 39.945312 L 141.984375 39.40625 L 140.308594 38.898438 L 138.621094 38.421875 L 136.921875 37.976562 L 135.210938 37.5625 L 133.492188 37.183594 L 131.765625 36.832031 L 130.03125 36.511719 L 128.292969 36.222656 L 126.542969 35.964844 L 124.789062 35.738281 L 123.03125 35.539062 L 121.269531 35.371094 L 119.503906 35.234375 L 117.734375 35.128906 L 115.964844 35.054688 L 114.195312 35.007812 L 112.425781 34.988281 L 110.652344 35.003906 L 108.882812 35.046875 L 107.117188 35.117188 L 105.351562 35.21875 L 103.589844 35.351562 L 101.832031 35.511719 L 100.082031 35.703125 L 98.335938 35.925781 L 96.59375 36.175781 L 94.863281 36.453125 L 93.140625 36.761719 L 91.425781 37.101562 L 89.71875 37.46875 L 88.023438 37.863281 L 86.339844 38.292969 L 84.671875 38.746094 L 83.011719 39.230469 L 81.367188 39.746094 L 79.742188 40.289062 L 78.128906 40.863281 L 76.53125 41.46875 L 74.953125 42.097656 L 73.390625 42.761719 L 71.847656 43.453125 L 70.328125 44.171875 L 68.828125 44.921875 L 67.347656 45.699219 L 65.894531 46.507812 L 64.464844 47.347656 L 63.058594 48.214844 L 61.675781 49.109375 L 60.324219 50.035156 L 59 50.988281 L 57.703125 51.972656 L 56.4375 52.984375 L 55.203125 54.023438 L 54.003906 55.09375 L 52.835938 56.191406 L 51.703125 57.316406 L 50.605469 58.46875 L 49.542969 59.648438 L 48.523438 60.855469 L 47.539062 62.089844 L 46.597656 63.351562 L 45.699219 64.640625 L 44.839844 65.953125 L 44.027344 67.289062 L 43.257812 68.652344 L 42.539062 70.039062 L 41.863281 71.449219 L 41.242188 72.878906 L 40.664062 74.332031 L 30.65625 99.484375 Z M 45.734375 76.867188 "/>
<path style="fill-rule:nonzero;fill:rgb(0%,0%,0%);fill-opacity:1;stroke-width:0.75;stroke-linecap:round;stroke-linejoin:round;stroke:rgb(0%,0%,0%);stroke-opacity:1;stroke-miterlimit:10;" d="M 39.085938 200.074219 L 39.527344 198.496094 L 39.996094 196.957031 L 40.503906 195.460938 L 41.046875 194.003906 L 41.621094 192.589844 L 42.226562 191.210938 L 42.863281 189.871094 L 43.535156 188.566406 L 44.238281 187.296875 L 44.972656 186.066406 L 45.734375 184.867188 L 46.507812 183.730469 L 47.308594 182.621094 L 48.140625 181.546875 L 48.996094 180.496094 L 49.878906 179.480469 L 50.785156 178.488281 L 51.71875 177.527344 L 52.675781 176.59375 L 53.660156 175.6875 L 54.667969 174.804688 L 55.699219 173.949219 L 56.753906 173.121094 L 57.832031 172.316406 L 58.933594 171.539062 L 60.058594 170.785156 L 61.203125 170.054688 L 62.367188 169.351562 L 63.554688 168.667969 L 64.761719 168.015625 L 65.988281 167.378906 L 67.234375 166.773438 L 68.496094 166.1875 L 69.78125 165.625 L 71.082031 165.085938 L 72.398438 164.574219 L 73.730469 164.082031 L 75.078125 163.617188 L 76.441406 163.171875 L 77.820312 162.753906 L 79.210938 162.355469 L 80.617188 161.984375 L 82.03125 161.636719 L 83.460938 161.308594 L 84.898438 161.007812 L 86.347656 160.726562 L 87.804688 160.472656 L 89.269531 160.242188 L 90.746094 160.03125 L 92.226562 159.847656 L 93.714844 159.6875 L 95.207031 159.546875 L 96.703125 159.433594 L 98.207031 159.34375 L 99.710938 159.277344 L 101.214844 159.230469 L 102.722656 159.210938 L 104.230469 159.214844 L 105.738281 159.238281 L 107.246094 159.289062 L 108.753906 159.359375 L 110.253906 159.457031 L 111.753906 159.574219 L 113.246094 159.71875 L 114.738281 159.882812 L 116.21875 160.070312 L 117.695312 160.28125 L 119.164062 160.515625 L 120.621094 160.769531 L 122.070312 161.050781 L 123.511719 161.351562 L 124.9375 161.675781 L 126.355469 162.019531 L 127.757812 162.386719 L 129.144531 162.777344 L 130.519531 163.191406 L 131.878906 163.625 L 133.222656 164.078125 L 134.546875 164.554688 L 135.851562 165.050781 L 137.140625 165.566406 L 138.410156 166.105469 L 139.65625 166.664062 L 140.882812 167.242188 L 142.085938 167.839844 L 143.269531 168.457031 L 144.425781 169.09375 L 145.558594 169.75 L 146.667969 170.421875 L 147.75 171.117188 L 148.804688 171.824219 L 149.835938 172.550781 L 150.835938 173.296875 L 151.808594 174.058594 L 152.753906 174.835938 L 153.671875 175.628906 L 154.558594 176.441406 L 155.414062 177.265625 L 156.242188 178.105469 L 157.039062 178.960938 L 157.804688 179.832031 L 158.539062 180.71875 L 159.242188 181.621094 L 159.914062 182.535156 L 160.554688 183.46875 L 161.167969 184.414062 L 161.746094 185.375 L 162.292969 186.351562 L 162.808594 187.34375 L 163.292969 188.355469 L 163.371094 188.507812 L 182.230469 188.507812 L 182.308594 188.355469 L 182.855469 187.378906 L 183.433594 186.425781 L 184.039062 185.488281 L 184.675781 184.574219 L 185.335938 183.675781 L 186.03125 182.800781 L 186.75 181.9375 L 187.5 181.097656 L 188.277344 180.273438 L 189.082031 179.464844 L 189.914062 178.675781 L 190.773438 177.902344 L 191.664062 177.148438 L 192.578125 176.414062 L 193.519531 175.695312 L 194.488281 174.992188 L 195.480469 174.3125 L 196.5 173.648438 L 197.546875 173 L 198.613281 172.375 L 199.707031 171.769531 L 200.820312 171.179688 L 201.960938 170.613281 L 203.121094 170.0625 L 204.300781 169.535156 L 205.503906 169.027344 L 206.722656 168.542969 L 207.964844 168.078125 L 209.222656 167.632812 L 210.496094 167.210938 L 211.789062 166.808594 L 213.097656 166.429688 L 214.421875 166.070312 L 215.757812 165.734375 L 217.105469 165.421875 L 218.46875 165.132812 L 219.84375 164.863281 L 221.226562 164.621094 L 222.621094 164.398438 L 224.023438 164.195312 L 225.433594 164.019531 L 226.847656 163.867188 L 228.273438 163.738281 L 229.699219 163.628906 L 231.132812 163.546875 L 232.566406 163.484375 L 234.003906 163.449219 L 235.441406 163.433594 L 236.878906 163.445312 L 238.320312 163.476562 L 239.753906 163.53125 L 241.191406 163.613281 L 242.621094 163.714844 L 244.046875 163.839844 L 245.46875 163.988281 L 246.882812 164.160156 L 248.289062 164.355469 L 249.691406 164.574219 L 251.082031 164.816406 L 252.460938 165.078125 L 253.832031 165.363281 L 255.1875 165.671875 L 256.53125 166 L 257.863281 166.351562 L 259.179688 166.726562 L 260.480469 167.121094 L 261.765625 167.535156 L 263.03125 167.972656 L 264.277344 168.429688 L 265.507812 168.910156 L 266.714844 169.40625 L 267.902344 169.925781 L 269.070312 170.460938 L 270.210938 171.015625 L 271.332031 171.59375 L 272.425781 172.183594 L 273.496094 172.796875 L 274.542969 173.425781 L 275.558594 174.070312 L 276.550781 174.730469 L 277.515625 175.410156 L 278.449219 176.101562 L 279.355469 176.808594 L 280.234375 177.535156 L 281.082031 178.269531 L 281.898438 179.019531 L 282.683594 179.785156 L 283.441406 180.5625 L 284.167969 181.351562 L 284.863281 182.15625 L 285.527344 182.972656 L 286.160156 183.796875 L 286.761719 184.636719 L 287.332031 185.488281 L 287.871094 186.355469 L 288.382812 187.230469 L 288.859375 188.121094 L 289.304688 189.023438 L 289.722656 189.9375 L 290.164062 191.011719 L 290.5625 192.105469 L 290.921875 193.222656 L 291.238281 194.359375 L 291.511719 195.523438 L 291.753906 196.710938 L 292.019531 197.914062 L 292.246094 199.148438 L 321.039062 194.421875 L 320.617188 192.117188 L 320.109375 189.84375 L 319.460938 187.632812 L 318.722656 185.464844 L 317.914062 183.339844 L 317.039062 181.265625 L 316.089844 179.238281 L 315.078125 177.261719 L 314.144531 175.585938 L 313.167969 173.949219 L 312.140625 172.355469 L 311.074219 170.796875 L 309.964844 169.28125 L 308.8125 167.804688 L 307.625 166.371094 L 306.398438 164.976562 L 305.136719 163.621094 L 303.839844 162.308594 L 302.515625 161.035156 L 301.15625 159.804688 L 299.765625 158.613281 L 298.351562 157.457031 L 296.90625 156.34375 L 295.4375 155.269531 L 293.945312 154.230469 L 292.425781 153.234375 L 290.886719 152.269531 L 289.328125 151.34375 L 287.746094 150.457031 L 286.148438 149.605469 L 284.527344 148.785156 L 282.894531 148.003906 L 281.242188 147.257812 L 279.574219 146.542969 L 277.890625 145.863281 L 276.191406 145.21875 L 274.484375 144.605469 L 272.757812 144.027344 L 271.023438 143.476562 L 269.277344 142.964844 L 267.519531 142.480469 L 265.753906 142.027344 L 263.976562 141.609375 L 262.191406 141.21875 L 260.398438 140.863281 L 258.597656 140.535156 L 256.792969 140.238281 L 254.980469 139.972656 L 253.164062 139.738281 L 251.34375 139.53125 L 249.515625 139.355469 L 247.6875 139.210938 L 245.855469 139.09375 L 244.023438 139.007812 L 242.1875 138.953125 L 240.351562 138.925781 L 238.515625 138.929688 L 236.683594 138.960938 L 234.851562 139.023438 L 233.019531 139.117188 L 231.191406 139.238281 L 229.367188 139.390625 L 227.542969 139.570312 L 225.730469 139.78125 L 223.917969 140.019531 L 222.113281 140.289062 L 220.316406 140.589844 L 218.527344 140.917969 L 216.742188 141.277344 L 214.96875 141.667969 L 213.207031 142.085938 L 211.453125 142.539062 L 209.710938 143.015625 L 207.980469 143.527344 L 206.261719 144.070312 L 204.554688 144.644531 L 202.863281 145.246094 L 201.1875 145.882812 L 199.527344 146.546875 L 197.882812 147.246094 L 196.253906 147.976562 L 194.644531 148.738281 L 193.054688 149.53125 L 191.484375 150.359375 L 189.933594 151.21875 L 188.40625 152.113281 L 186.898438 153.039062 L 185.414062 154 L 183.957031 154.996094 L 182.523438 156.023438 L 181.117188 157.085938 L 179.742188 158.183594 L 178.390625 159.316406 L 177.070312 160.484375 L 175.785156 161.6875 L 174.53125 162.925781 L 173.308594 164.199219 L 172.335938 165.273438 L 171.773438 164.699219 L 170.515625 163.492188 L 169.226562 162.324219 L 167.90625 161.191406 L 166.558594 160.097656 L 165.183594 159.042969 L 163.785156 158.019531 L 162.355469 157.035156 L 160.90625 156.089844 L 159.433594 155.175781 L 157.9375 154.300781 L 156.421875 153.457031 L 154.886719 152.648438 L 153.332031 151.878906 L 151.757812 151.140625 L 150.167969 150.433594 L 148.558594 149.761719 L 146.9375 149.125 L 145.300781 148.519531 L 143.648438 147.945312 L 141.984375 147.40625 L 140.308594 146.898438 L 138.621094 146.421875 L 136.921875 145.976562 L 135.210938 145.5625 L 133.492188 145.183594 L 131.765625 144.832031 L 130.03125 144.511719 L 128.292969 144.222656 L 126.542969 143.964844 L 124.789062 143.738281 L 123.03125 143.539062 L 121.269531 143.371094 L 119.503906 143.234375 L 117.734375 143.128906 L 115.964844 143.054688 L 114.195312 143.007812 L 112.425781 142.988281 L 110.652344 143.003906 L 108.882812 143.046875 L 107.117188 143.117188 L 105.351562 143.21875 L 103.589844 143.351562 L 101.832031 143.511719 L 100.082031 143.703125 L 98.335938 143.925781 L 96.59375 144.175781 L 94.863281 144.453125 L 93.140625 144.761719 L 91.425781 145.101562 L 89.71875 145.46875 L 88.023438 145.863281 L 86.339844 146.292969 L 84.671875 146.746094 L 83.011719 147.230469 L 81.367188 147.746094 L 79.742188 148.289062 L 78.128906 148.863281 L 76.53125 149.46875 L 74.953125 150.097656 L 73.390625 150.761719 L 71.847656 151.453125 L 70.328125 152.171875 L 68.828125 152.921875 L 67.347656 153.699219 L 65.894531 154.507812 L 64.464844 155.347656 L 63.058594 156.214844 L 61.675781 157.109375 L 60.324219 158.035156 L 59 158.988281 L 57.703125 159.972656 L 56.4375 160.984375 L 55.203125 162.023438 L 54.003906 163.09375 L 52.835938 164.191406 L 51.703125 165.316406 L 50.605469 166.46875 L 49.542969 167.648438 L 48.523438 168.855469 L 47.539062 170.089844 L 46.597656 171.351562 L 45.699219 172.640625 L 44.839844 173.953125 L 44.027344 175.289062 L 43.257812 176.652344 L 42.539062 178.039062 L 41.863281 179.449219 L 41.242188 180.878906 L 40.664062 182.332031 L 40.128906 183.84375 L 39.648438 185.375 L 39.222656 186.925781 L 38.855469 188.496094 L 38.546875 190.085938 L 38.296875 191.695312 L 38.109375 193.320312 L 37.980469 194.960938 L 37.917969 196.613281 L 37.917969 198.285156 L 37.980469 199.96875 L 38.117188 201.660156 L 38.683594 201.699219 Z M 39.085938 200.074219 "/>
</g>
</svg>
