<?xml version="1.0" encoding="UTF-8"?>
<svg xmlns="http://www.w3.org/2000/svg" xmlns:xlink="http://www.w3.org/1999/xlink" width="432pt" height="216pt" viewBox="0 0 432 216" version="1.1">
<g id="surface69">
<rect x="0" y="0" width="432" height="216" style="fill:rgb(100%,100%,100%);fill-opacity:1;stroke:none;"/>
<path style="fill-rule:nonzero;fill:rgb(0%,0%,0%);fill-opacity:1;stroke-width:0.75;stroke-linecap:round;stroke-linejoin:round;stroke:rgb(0%,0%,0%);stroke-opacity:1;stroke-miterlimit:10;" d="M 322.800781 64.445312 L 312.421875 54.777344 L 310.960938 53.429688 L 309.5 52.109375 L 308.035156 50.8125 L 306.566406 49.542969 L 305.101562 48.300781 L 303.628906 47.082031 L 302.160156 45.894531 L 300.683594 44.726562 L 299.207031 43.589844 L 297.730469 42.476562 L 296.25 41.390625 L 294.769531 40.332031 L 293.28125 39.300781 L 291.796875 38.296875 L 290.304688 37.316406 L 288.8125 36.367188 L 287.320312 35.441406 L 285.820312 34.542969 L 284.320312 33.675781 L 282.820312 32.832031 L 281.3125 32.015625 L 279.804688 31.230469 L 278.296875 30.46875 L 276.78125 29.738281 L 275.265625 29.035156 L 273.746094 28.363281 L 272.226562 27.714844 L 270.703125 27.097656 L 269.175781 26.511719 L 267.648438 25.949219 L 266.117188 25.421875 L 264.585938 24.917969 L 263.050781 24.449219 L 261.515625 24.007812 L 259.976562 23.59375 L 258.433594 23.214844 L 256.894531 22.863281 L 255.351562 22.539062 L 253.808594 22.25 L 252.261719 21.988281 L 250.71875 21.761719 L 249.171875 21.5625 L 247.628906 21.394531 L 246.082031 21.257812 L 244.539062 21.152344 L 242.992188 21.078125 L 241.449219 21.035156 L 239.910156 21.023438 L 238.371094 21.039062 L 236.832031 21.066406 L 235.292969 21.097656 L 233.753906 21.160156 L 232.21875 21.25 L 230.683594 21.375 L 229.148438 21.53125 L 227.613281 21.714844 L 226.082031 21.933594 L 224.554688 22.179688 L 223.027344 22.457031 L 221.5 22.765625 L 219.980469 23.105469 L 218.460938 23.472656 L 216.945312 23.871094 L 215.429688 24.296875 L 213.921875 24.757812 L 212.414062 25.242188 L 210.910156 25.757812 L 209.414062 26.304688 L 207.917969 26.878906 L 206.425781 27.480469 L 204.9375 28.113281 L 203.453125 28.773438 L 201.972656 29.460938 L 200.496094 30.175781 L 199.027344 30.917969 L 197.558594 31.691406 L 196.09375 32.488281 L 194.632812 33.3125 L 193.175781 34.167969 L 191.726562 35.046875 L 190.277344 35.953125 L 188.832031 36.890625 L 187.390625 37.847656 L 185.953125 38.835938 L 184.519531 39.851562 L 183.089844 40.890625 L 181.664062 41.957031 L 180.238281 43.050781 L 178.820312 44.167969 L 177.402344 45.3125 L 175.988281 46.484375 L 174.578125 47.679688 L 173.167969 48.90625 L 172.800781 49.234375 L 172.429688 48.90625 L 171.023438 47.679688 L 169.613281 46.484375 L 168.199219 45.3125 L 166.78125 44.167969 L 165.359375 43.050781 L 163.9375 41.957031 L 162.511719 40.890625 L 161.082031 39.851562 L 159.648438 38.835938 L 158.210938 37.847656 L 156.769531 36.890625 L 155.324219 35.953125 L 153.875 35.046875 L 152.421875 34.167969 L 150.964844 33.3125 L 149.507812 32.488281 L 148.042969 31.691406 L 146.574219 30.917969 L 145.101562 30.175781 L 143.625 29.460938 L 142.148438 28.773438 L 140.664062 28.113281 L 139.175781 27.480469 L 137.683594 26.878906 L 136.1875 26.304688 L 134.6875 25.757812 L 133.1875 25.242188 L 131.679688 24.757812 L 130.167969 24.296875 L 128.65625 23.871094 L 127.140625 23.472656 L 125.621094 23.105469 L 124.097656 22.765625 L 122.574219 22.457031 L 121.046875 22.179688 L 119.515625 21.933594 L 117.984375 21.714844 L 116.453125 21.53125 L 114.917969 21.375 L 113.382812 21.25 L 111.84375 21.160156 L 110.308594 21.097656 L 108.769531 21.066406 L 107.230469 21.140625 L 105.699219 21.320312 L 104.175781 21.53125 L 102.65625 21.773438 L 101.144531 22.046875 L 99.640625 22.351562 L 98.140625 22.683594 L 96.652344 23.046875 L 95.171875 23.441406 L 93.695312 23.863281 L 92.230469 24.316406 L 90.773438 24.796875 L 89.324219 25.304688 L 87.882812 25.84375 L 86.449219 26.410156 L 85.023438 27.007812 L 83.609375 27.628906 L 82.203125 28.28125 L 80.804688 28.957031 L 79.414062 29.664062 L 78.03125 30.394531 L 76.660156 31.15625 L 75.292969 31.941406 L 73.9375 32.753906 L 72.589844 33.589844 L 71.246094 34.457031 L 69.914062 35.347656 L 68.589844 36.265625 L 67.273438 37.207031 L 65.964844 38.175781 L 64.664062 39.167969 L 63.371094 40.1875 L 62.082031 41.230469 L 60.800781 42.300781 L 59.53125 43.394531 L 58.265625 44.515625 L 57.003906 45.660156 L 55.753906 46.828125 L 54.507812 48.023438 L 53.265625 49.242188 L 52.035156 50.484375 L 50.804688 51.753906 L 49.585938 53.046875 L 48.371094 54.367188 L 47.160156 55.710938 L 45.957031 57.078125 L 44.757812 58.46875 L 43.566406 59.886719 L 42.378906 61.328125 L 41.195312 62.796875 L 25.410156 82.339844 L 45.203125 66.804688 L 46.640625 65.679688 L 48.070312 64.582031 L 49.496094 63.511719 L 50.917969 62.472656 L 52.332031 61.460938 L 53.738281 60.476562 L 55.140625 59.519531 L 56.539062 58.59375 L 57.929688 57.691406 L 59.316406 56.820312 L 60.695312 55.976562 L 62.066406 55.160156 L 63.429688 54.375 L 64.789062 53.613281 L 66.144531 52.882812 L 67.488281 52.179688 L 68.828125 51.503906 L 70.15625 50.855469 L 71.480469 50.234375 L 72.796875 49.640625 L 74.109375 49.074219 L 75.410156 48.535156 L 76.703125 48.023438 L 77.988281 47.539062 L 79.265625 47.082031 L 80.535156 46.652344 L 81.796875 46.25 L 83.050781 45.871094 L 84.296875 45.519531 L 85.53125 45.195312 L 86.761719 44.894531 L 87.980469 44.621094 L 89.191406 44.371094 L 90.394531 44.148438 L 91.585938 43.949219 L 92.773438 43.777344 L 93.949219 43.625 L 95.117188 43.5 L 96.277344 43.402344 L 97.429688 43.324219 L 98.574219 43.269531 L 99.710938 43.242188 L 100.839844 43.234375 L 101.960938 43.25 L 103.074219 43.289062 L 104.179688 43.347656 L 105.28125 43.433594 L 106.371094 43.539062 L 107.460938 43.667969 L 108.539062 43.742188 L 109.621094 43.761719 L 110.699219 43.808594 L 111.78125 43.871094 L 112.863281 43.960938 L 113.949219 44.070312 L 115.03125 44.199219 L 116.121094 44.355469 L 117.207031 44.53125 L 118.300781 44.730469 L 119.394531 44.949219 L 120.488281 45.191406 L 121.585938 45.460938 L 122.6875 45.75 L 123.792969 46.0625 L 124.902344 46.398438 L 126.015625 46.757812 L 127.128906 47.140625 L 128.25 47.546875 L 129.371094 47.976562 L 130.496094 48.433594 L 131.628906 48.914062 L 132.761719 49.417969 L 133.902344 49.945312 L 135.042969 50.5 L 136.1875 51.078125 L 137.339844 51.683594 L 138.492188 52.3125 L 139.652344 52.964844 L 140.8125 53.648438 L 141.980469 54.355469 L 143.148438 55.085938 L 144.324219 55.84375 L 145.5 56.628906 L 146.679688 57.441406 L 147.863281 58.277344 L 149.050781 59.140625 L 150.242188 60.03125 L 151.4375 60.949219 L 152.636719 61.894531 L 153.839844 62.863281 L 155.042969 63.863281 L 156.25 64.886719 L 157.460938 65.9375 L 158.675781 67.015625 L 159.890625 68.121094 L 161.109375 69.253906 L 162.332031 70.414062 L 163.554688 71.601562 L 164.78125 72.816406 L 172.800781 80.753906 L 180.816406 72.816406 L 182.042969 71.601562 L 183.269531 70.414062 L 184.492188 69.253906 L 185.710938 68.121094 L 186.925781 67.015625 L 188.140625 65.9375 L 189.351562 64.886719 L 190.558594 63.863281 L 191.761719 62.863281 L 192.964844 61.894531 L 194.160156 60.949219 L 195.355469 60.03125 L 196.546875 59.140625 L 197.734375 58.277344 L 198.917969 57.441406 L 200.101562 56.628906 L 201.277344 55.84375 L 202.449219 55.085938 L 203.621094 54.355469 L 204.785156 53.648438 L 205.949219 52.964844 L 207.105469 52.3125 L 208.261719 51.683594 L 209.410156 51.078125 L 210.558594 50.5 L 211.699219 49.945312 L 212.835938 49.417969 L 213.972656 48.914062 L 215.101562 48.433594 L 216.230469 47.976562 L 217.351562 47.546875 L 218.46875 47.140625 L 219.585938 46.757812 L 220.699219 46.398438 L 221.804688 46.0625 L 222.910156 45.75 L 224.011719 45.460938 L 225.113281 45.191406 L 226.207031 44.949219 L 227.300781 44.730469 L 228.390625 44.53125 L 229.480469 44.355469 L 230.566406 44.199219 L 231.652344 44.070312 L 232.734375 43.960938 L 233.816406 43.871094 L 234.898438 43.808594 L 235.980469 43.761719 L 237.058594 43.742188 L 238.140625 43.765625 L 239.21875 43.839844 L 240.292969 43.929688 L 241.371094 44.046875 L 242.445312 44.183594 L 243.515625 44.34375 L 244.589844 44.523438 L 245.664062 44.726562 L 246.734375 44.949219 L 247.808594 45.195312 L 248.882812 45.464844 L 249.957031 45.757812 L 251.035156 46.070312 L 252.109375 46.40625 L 253.1875 46.765625 L 254.269531 47.148438 L 255.347656 47.550781 L 256.433594 47.980469 L 257.519531 48.429688 L 258.605469 48.90625 L 259.695312 49.402344 L 260.789062 49.925781 L 261.882812 50.472656 L 262.980469 51.042969 L 264.078125 51.636719 L 265.183594 52.257812 L 266.285156 52.902344 L 267.394531 53.570312 L 268.503906 54.265625 L 269.617188 54.984375 L 270.734375 55.726562 L 271.851562 56.496094 L 272.972656 57.292969 L 274.09375 58.113281 L 275.222656 58.960938 L 276.351562 59.832031 L 277.480469 60.730469 L 278.613281 61.65625 L 279.75 62.609375 L 280.886719 63.585938 L 282.027344 64.589844 L 283.167969 65.617188 L 284.3125 66.675781 L 285.460938 67.757812 L 286.609375 68.871094 L 287.757812 70.007812 L 288.910156 71.167969 L 290.066406 72.359375 L 291.222656 73.578125 L 292.378906 74.820312 L 302.042969 85.199219 Z M 322.800781 64.445312 "/>
<path style="fill-rule:nonzero;fill:rgb(0%,0%,0%);fill-opacity:1;stroke-width:0.75;stroke-linecap:round;stroke-linejoin:round;stroke:rgb(0%,0%,0%);stroke-opacity:1;stroke-miterlimit:10;" d="M 304.382812 145.066406 L 304.835938 145.035156 L 305.285156 144.988281 L 305.730469 144.929688 L 306.175781 144.855469 L 306.613281 144.765625 L 307.046875 144.660156 L 307.476562 144.542969 L 307.902344 144.410156 L 308.324219 144.265625 L 308.738281 144.109375 L 309.148438 143.9375 L 309.550781 143.757812 L 309.949219 143.5625 L 310.339844 143.355469 L 310.722656 143.136719 L 311.101562 142.90625 L 311.472656 142.664062 L 311.835938 142.410156 L 312.191406 142.148438 L 312.535156 141.875 L 312.875 141.589844 L 313.207031 141.296875 L 313.527344 140.992188 L 313.839844 140.679688 L 314.144531 140.359375 L 314.4375 140.027344 L 314.71875 139.691406 L 314.992188 139.34375 L 315.257812 138.988281 L 315.507812 138.625 L 315.75 138.253906 L 315.980469 137.878906 L 316.199219 137.496094 L 316.40625 137.105469 L 316.601562 136.707031 L 316.78125 136.304688 L 316.953125 135.894531 L 317.109375 135.480469 L 317.253906 135.0625 L 317.382812 134.636719 L 317.5 134.207031 L 317.605469 133.773438 L 317.691406 133.335938 L 317.765625 132.890625 L 317.828125 132.445312 L 317.871094 131.996094 L 317.902344 131.546875 L 317.914062 131.089844 L 317.914062 130.632812 L 317.894531 130.171875 L 317.859375 129.710938 L 317.808594 129.246094 L 317.742188 128.78125 L 317.65625 128.316406 L 317.554688 127.847656 L 317.433594 127.378906 L 317.296875 126.910156 L 317.136719 126.441406 L 316.964844 125.972656 L 316.769531 125.507812 L 316.558594 125.039062 L 316.324219 124.570312 L 316.074219 124.105469 L 315.800781 123.644531 L 315.511719 123.179688 L 315.199219 122.71875 L 314.867188 122.261719 L 314.511719 121.808594 L 314.136719 121.355469 L 313.742188 120.90625 L 313.324219 120.460938 L 312.882812 120.015625 L 312.421875 119.578125 L 310.960938 118.230469 L 309.5 116.910156 L 308.035156 115.613281 L 306.566406 114.34375 L 305.101562 113.101562 L 303.628906 111.882812 L 302.160156 110.691406 L 300.683594 109.527344 L 299.207031 108.390625 L 297.730469 107.277344 L 296.25 106.191406 L 294.769531 105.132812 L 293.28125 104.101562 L 291.796875 103.097656 L 290.304688 102.117188 L 288.8125 101.164062 L 287.320312 100.242188 L 285.820312 99.34375 L 284.320312 98.472656 L 282.820312 97.632812 L 281.3125 96.816406 L 279.804688 96.03125 L 278.296875 95.269531 L 276.78125 94.539062 L 275.265625 93.835938 L 273.746094 93.160156 L 272.226562 92.515625 L 270.703125 91.898438 L 269.175781 91.308594 L 267.648438 90.75 L 266.117188 90.21875 L 264.585938 89.71875 L 263.050781 89.25 L 261.515625 88.804688 L 259.976562 88.394531 L 258.433594 88.011719 L 256.894531 87.660156 L 255.351562 87.339844 L 253.808594 87.050781 L 252.261719 86.789062 L 250.71875 86.558594 L 249.171875 86.363281 L 247.628906 86.195312 L 246.082031 86.058594 L 244.539062 85.953125 L 242.992188 85.878906 L 241.449219 85.832031 L 239.910156 85.820312 L 238.371094 85.839844 L 235.292969 85.894531 L 233.753906 85.957031 L 232.21875 86.050781 L 230.683594 86.175781 L 229.148438 86.332031 L 227.613281 86.515625 L 226.082031 86.734375 L 224.554688 86.980469 L 223.027344 87.257812 L 221.5 87.566406 L 219.980469 87.90625 L 218.460938 88.273438 L 216.945312 88.671875 L 215.429688 89.097656 L 213.921875 89.554688 L 212.414062 90.042969 L 210.910156 90.558594 L 209.414062 91.105469 L 207.917969 91.679688 L 206.425781 92.28125 L 204.9375 92.914062 L 203.453125 93.570312 L 201.972656 94.257812 L 200.496094 94.976562 L 199.027344 95.71875 L 197.558594 96.488281 L 196.09375 97.289062 L 194.632812 98.113281 L 193.175781 98.96875 L 191.726562 99.847656 L 190.277344 100.753906 L 188.832031 101.6875 L 187.390625 102.648438 L 185.953125 103.636719 L 184.519531 104.652344 L 183.089844 105.691406 L 181.664062 106.757812 L 180.238281 107.851562 L 178.820312 108.96875 L 177.402344 110.113281 L 175.988281 111.285156 L 174.578125 112.480469 L 173.167969 113.703125 L 172.800781 114.03125 L 172.429688 113.703125 L 171.023438 112.480469 L 169.613281 111.285156 L 168.199219 110.113281 L 166.78125 108.96875 L 165.359375 107.851562 L 163.9375 106.757812 L 162.511719 105.691406 L 161.082031 104.652344 L 159.648438 103.636719 L 158.210938 102.648438 L 156.769531 101.6875 L 155.324219 100.753906 L 153.875 99.847656 L 152.421875 98.96875 L 150.964844 98.113281 L 149.507812 97.289062 L 148.042969 96.488281 L 146.574219 95.71875 L 145.101562 94.976562 L 143.625 94.257812 L 142.148438 93.570312 L 140.664062 92.914062 L 139.175781 92.28125 L 137.683594 91.679688 L 136.1875 91.105469 L 134.6875 90.558594 L 133.1875 90.042969 L 131.679688 89.554688 L 130.167969 89.097656 L 128.65625 88.671875 L 127.140625 88.273438 L 125.621094 87.90625 L 124.097656 87.566406 L 122.574219 87.257812 L 121.046875 86.980469 L 119.515625 86.734375 L 117.984375 86.515625 L 116.453125 86.332031 L 114.917969 86.175781 L 113.382812 86.050781 L 111.84375 85.957031 L 110.308594 85.894531 L 108.769531 85.867188 L 107.230469 85.941406 L 105.699219 86.121094 L 104.175781 86.332031 L 102.65625 86.574219 L 101.144531 86.847656 L 99.640625 87.152344 L 98.140625 87.484375 L 96.652344 87.847656 L 95.171875 88.242188 L 93.695312 88.664062 L 92.230469 89.113281 L 90.773438 89.597656 L 89.324219 90.105469 L 87.882812 90.644531 L 86.449219 91.210938 L 85.023438 91.804688 L 83.609375 92.429688 L 82.203125 93.078125 L 80.804688 93.757812 L 79.414062 94.460938 L 78.03125 95.195312 L 76.660156 95.953125 L 75.292969 96.742188 L 73.9375 97.550781 L 72.589844 98.390625 L 71.246094 99.257812 L 69.914062 100.148438 L 68.589844 101.0625 L 67.273438 102.007812 L 65.964844 102.972656 L 64.664062 103.96875 L 63.371094 104.988281 L 62.082031 106.03125 L 60.800781 107.101562 L 59.53125 108.195312 L 58.265625 109.3125 L 57.003906 110.457031 L 55.753906 111.628906 L 54.507812 112.824219 L 53.265625 114.042969 L 52.035156 115.285156 L 50.804688 116.554688 L 49.585938 117.847656 L 48.371094 119.167969 L 47.160156 120.507812 L 45.957031 121.878906 L 44.757812 123.269531 L 43.566406 124.6875 L 42.378906 126.128906 L 41.195312 127.59375 L 41.132812 127.675781 L 41.015625 127.839844 L 40.960938 127.921875 L 40.867188 128.085938 L 40.824219 128.167969 L 40.78125 128.253906 L 40.710938 128.417969 L 40.679688 128.503906 L 40.652344 128.585938 L 40.625 128.671875 L 40.585938 128.835938 L 40.566406 128.921875 L 40.542969 129.085938 L 40.535156 129.171875 L 40.527344 129.335938 L 40.527344 129.5 L 40.535156 129.582031 L 40.539062 129.660156 L 40.550781 129.742188 L 40.5625 129.820312 L 40.578125 129.898438 L 40.59375 129.980469 L 40.613281 130.054688 L 40.632812 130.132812 L 40.65625 130.210938 L 40.710938 130.359375 L 40.773438 130.507812 L 40.808594 130.582031 L 40.84375 130.652344 L 40.882812 130.722656 L 40.921875 130.789062 L 40.964844 130.859375 L 41.050781 130.992188 L 41.097656 131.054688 L 41.148438 131.121094 L 41.199219 131.183594 L 41.25 131.242188 L 41.414062 131.417969 L 41.472656 131.472656 L 41.53125 131.523438 L 41.59375 131.578125 L 41.65625 131.628906 L 41.71875 131.675781 L 41.851562 131.769531 L 41.984375 131.855469 L 42.125 131.933594 L 42.195312 131.96875 L 42.269531 132.003906 L 42.417969 132.066406 L 42.492188 132.09375 L 42.570312 132.121094 L 42.644531 132.144531 L 42.878906 132.203125 L 42.960938 132.214844 L 43.039062 132.230469 L 43.285156 132.253906 L 43.53125 132.253906 L 43.613281 132.25 L 43.699219 132.242188 L 43.78125 132.230469 L 43.867188 132.21875 L 43.949219 132.203125 L 44.035156 132.183594 L 44.117188 132.160156 L 44.203125 132.136719 L 44.289062 132.109375 L 44.371094 132.078125 L 44.457031 132.046875 L 44.539062 132.007812 L 44.625 131.96875 L 44.707031 131.929688 L 44.792969 131.882812 L 44.957031 131.78125 L 45.039062 131.726562 L 45.121094 131.667969 L 45.203125 131.605469 L 46.640625 130.480469 L 48.070312 129.382812 L 49.496094 128.3125 L 50.917969 127.273438 L 52.332031 126.261719 L 53.738281 125.277344 L 55.140625 124.320312 L 56.539062 123.390625 L 57.929688 122.492188 L 59.316406 121.621094 L 60.695312 120.777344 L 62.066406 119.960938 L 63.429688 119.175781 L 64.789062 118.414062 L 66.144531 117.683594 L 67.488281 116.980469 L 68.828125 116.304688 L 70.15625 115.65625 L 71.480469 115.035156 L 72.796875 114.441406 L 74.109375 113.875 L 75.410156 113.335938 L 76.703125 112.824219 L 77.988281 112.339844 L 79.265625 111.882812 L 80.535156 111.453125 L 81.796875 111.046875 L 83.050781 110.671875 L 84.296875 110.320312 L 85.53125 109.992188 L 86.761719 109.695312 L 87.980469 109.417969 L 89.191406 109.171875 L 90.394531 108.949219 L 91.585938 108.75 L 92.773438 108.574219 L 93.949219 108.425781 L 95.117188 108.300781 L 96.277344 108.199219 L 97.429688 108.125 L 98.574219 108.070312 L 99.710938 108.039062 L 100.839844 108.035156 L 101.960938 108.050781 L 103.074219 108.089844 L 104.179688 108.148438 L 105.28125 108.234375 L 106.371094 108.339844 L 107.460938 108.464844 L 108.539062 108.542969 L 109.621094 108.5625 L 110.699219 108.605469 L 111.78125 108.671875 L 112.863281 108.761719 L 113.949219 108.871094 L 115.03125 109 L 116.121094 109.15625 L 117.207031 109.332031 L 118.300781 109.527344 L 119.394531 109.75 L 120.488281 109.992188 L 121.585938 110.257812 L 122.6875 110.550781 L 123.792969 110.863281 L 124.902344 111.199219 L 126.015625 111.558594 L 127.128906 111.941406 L 128.25 112.347656 L 129.371094 112.777344 L 130.496094 113.234375 L 131.628906 113.710938 L 132.761719 114.214844 L 133.902344 114.746094 L 135.042969 115.300781 L 136.1875 115.878906 L 137.339844 116.480469 L 138.492188 117.113281 L 139.652344 117.765625 L 140.8125 118.449219 L 141.980469 119.152344 L 143.148438 119.886719 L 144.324219 120.644531 L 145.5 121.429688 L 146.679688 122.242188 L 147.863281 123.078125 L 149.050781 123.941406 L 150.242188 124.832031 L 151.4375 125.75 L 152.636719 126.695312 L 153.839844 127.664062 L 155.042969 128.664062 L 156.25 129.6875 L 157.460938 130.738281 L 158.675781 131.816406 L 159.890625 132.921875 L 161.109375 134.054688 L 162.332031 135.214844 L 163.554688 136.402344 L 164.78125 137.617188 L 164.824219 137.65625 L 164.957031 137.789062 L 165.09375 137.917969 L 165.230469 138.042969 L 165.371094 138.167969 L 165.511719 138.289062 L 165.65625 138.40625 L 165.945312 138.632812 L 166.089844 138.742188 L 166.238281 138.851562 L 166.386719 138.953125 L 166.691406 139.15625 L 166.84375 139.25 L 167 139.34375 L 167.152344 139.4375 L 167.3125 139.523438 L 167.46875 139.609375 L 167.628906 139.691406 L 167.785156 139.773438 L 167.949219 139.851562 L 168.109375 139.925781 L 168.273438 140 L 168.433594 140.066406 L 168.601562 140.136719 L 168.929688 140.261719 L 169.097656 140.320312 L 169.433594 140.429688 L 169.601562 140.480469 L 169.769531 140.527344 L 169.941406 140.574219 L 170.113281 140.617188 L 170.28125 140.65625 L 170.453125 140.695312 L 170.625 140.730469 L 170.796875 140.761719 L 170.972656 140.789062 L 171.316406 140.84375 L 171.492188 140.863281 L 171.664062 140.882812 L 171.839844 140.898438 L 172.015625 140.910156 L 172.1875 140.921875 L 172.363281 140.929688 L 172.539062 140.933594 L 172.710938 140.9375 L 172.886719 140.9375 L 173.238281 140.929688 L 173.410156 140.921875 L 173.761719 140.898438 L 173.933594 140.882812 L 174.109375 140.863281 L 174.28125 140.84375 L 174.457031 140.816406 L 174.800781 140.761719 L 174.972656 140.730469 L 175.144531 140.695312 L 175.488281 140.617188 L 175.660156 140.574219 L 175.828125 140.527344 L 176 140.480469 L 176.167969 140.429688 L 176.503906 140.320312 L 176.667969 140.261719 L 176.835938 140.199219 L 177 140.136719 L 177.164062 140.066406 L 177.328125 140 L 177.492188 139.925781 L 177.652344 139.851562 L 177.8125 139.773438 L 178.132812 139.609375 L 178.445312 139.4375 L 178.601562 139.34375 L 178.753906 139.25 L 178.910156 139.15625 L 179.0625 139.054688 L 179.359375 138.851562 L 179.65625 138.632812 L 179.945312 138.40625 L 180.085938 138.289062 L 180.226562 138.167969 L 180.367188 138.042969 L 180.503906 137.917969 L 180.640625 137.789062 L 180.777344 137.65625 L 180.816406 137.617188 L 182.042969 136.402344 L 183.269531 135.214844 L 184.492188 134.054688 L 185.710938 132.921875 L 186.925781 131.816406 L 188.140625 130.738281 L 189.351562 129.6875 L 190.558594 128.664062 L 191.761719 127.664062 L 192.964844 126.695312 L 194.160156 125.75 L 195.355469 124.832031 L 196.546875 123.941406 L 197.734375 123.078125 L 198.917969 122.242188 L 200.101562 121.429688 L 201.277344 120.644531 L 202.449219 119.886719 L 203.621094 119.152344 L 204.785156 118.449219 L 205.949219 117.765625 L 207.105469 117.113281 L 208.261719 116.480469 L 209.410156 115.878906 L 210.558594 115.300781 L 211.699219 114.746094 L 212.835938 114.214844 L 213.972656 113.710938 L 215.101562 113.234375 L 216.230469 112.777344 L 217.351562 112.347656 L 218.46875 111.941406 L 219.585938 111.558594 L 220.699219 111.199219 L 221.804688 110.863281 L 222.910156 110.550781 L 224.011719 110.257812 L 225.113281 109.992188 L 226.207031 109.75 L 227.300781 109.527344 L 228.390625 109.332031 L 229.480469 109.15625 L 230.566406 109 L 231.652344 108.871094 L 232.734375 108.761719 L 233.816406 108.671875 L 234.898438 108.605469 L 235.980469 108.5625 L 237.058594 108.542969 L 238.140625 108.566406 L 239.21875 108.636719 L 240.292969 108.730469 L 241.371094 108.847656 L 242.445312 108.984375 L 243.515625 109.140625 L 244.589844 109.324219 L 245.664062 109.527344 L 246.734375 109.75 L 247.808594 109.996094 L 248.882812 110.265625 L 249.957031 110.558594 L 251.035156 110.871094 L 252.109375 111.207031 L 253.1875 111.566406 L 254.269531 111.945312 L 255.347656 112.351562 L 256.433594 112.78125 L 257.519531 113.230469 L 258.605469 113.707031 L 259.695312 114.203125 L 260.789062 114.726562 L 261.882812 115.273438 L 262.980469 115.84375 L 264.078125 116.4375 L 265.183594 117.058594 L 266.285156 117.703125 L 267.394531 118.371094 L 268.503906 119.0625 L 269.617188 119.78125 L 270.734375 120.527344 L 271.851562 121.296875 L 272.972656 122.09375 L 274.09375 122.914062 L 275.222656 123.761719 L 276.351562 124.632812 L 277.480469 125.53125 L 278.613281 126.457031 L 279.75 127.40625 L 280.886719 128.386719 L 282.027344 129.390625 L 283.167969 130.417969 L 284.3125 131.476562 L 285.460938 132.558594 L 286.609375 133.667969 L 287.757812 134.804688 L 288.910156 135.96875 L 290.066406 137.160156 L 291.222656 138.378906 L 292.378906 139.621094 L 292.820312 140.082031 L 293.261719 140.519531 L 293.710938 140.9375 L 294.164062 141.332031 L 294.617188 141.703125 L 295.074219 142.054688 L 295.535156 142.386719 L 295.996094 142.699219 L 296.457031 142.988281 L 296.925781 143.257812 L 297.390625 143.507812 L 297.859375 143.738281 L 298.328125 143.949219 L 298.796875 144.140625 L 299.269531 144.316406 L 299.738281 144.46875 L 300.207031 144.605469 L 300.675781 144.726562 L 301.144531 144.828125 L 301.613281 144.910156 L 302.078125 144.976562 L 302.542969 145.027344 L 303.007812 145.0625 L 303.46875 145.078125 L 303.925781 145.078125 Z M 304.382812 145.066406 "/>
<path style="fill-rule:nonzero;fill:rgb(0%,0%,0%);fill-opacity:1;stroke-width:0.75;stroke-linecap:round;stroke-linejoin:round;stroke:rgb(0%,0%,0%);stroke-opacity:1;stroke-miterlimit:10;" d="M 322.800781 194.042969 L 312.421875 184.378906 L 310.960938 183.03125 L 309.5 181.710938 L 308.035156 180.414062 L 306.566406 179.144531 L 305.101562 177.902344 L 303.628906 176.683594 L 302.160156 175.492188 L 300.683594 174.328125 L 299.207031 173.191406 L 297.730469 172.078125 L 296.25 170.992188 L 294.769531 169.933594 L 293.28125 168.902344 L 291.796875 167.894531 L 290.304688 166.917969 L 288.8125 165.964844 L 287.320312 165.042969 L 285.820312 164.144531 L 284.320312 163.273438 L 282.820312 162.433594 L 281.3125 161.617188 L 279.804688 160.828125 L 278.296875 160.070312 L 276.78125 159.339844 L 275.265625 158.636719 L 273.746094 157.960938 L 272.226562 157.316406 L 270.703125 156.699219 L 269.175781 156.109375 L 267.648438 155.550781 L 266.117188 155.019531 L 264.585938 154.519531 L 263.050781 154.046875 L 261.515625 153.605469 L 259.976562 153.195312 L 258.433594 152.8125 L 256.894531 152.460938 L 255.351562 152.140625 L 253.808594 151.851562 L 252.261719 151.589844 L 250.71875 151.359375 L 249.171875 151.160156 L 247.628906 150.996094 L 246.082031 150.859375 L 244.539062 150.75 L 242.992188 150.675781 L 241.449219 150.632812 L 239.910156 150.621094 L 238.371094 150.640625 L 236.832031 150.664062 L 235.292969 150.695312 L 233.753906 150.757812 L 232.21875 150.851562 L 230.683594 150.976562 L 229.148438 151.128906 L 227.613281 151.316406 L 226.082031 151.53125 L 224.554688 151.78125 L 223.027344 152.058594 L 221.5 152.367188 L 219.980469 152.703125 L 218.460938 153.074219 L 216.945312 153.472656 L 215.429688 153.898438 L 213.921875 154.355469 L 212.414062 154.84375 L 210.910156 155.359375 L 209.414062 155.90625 L 207.917969 156.480469 L 206.425781 157.082031 L 204.9375 157.710938 L 203.453125 158.371094 L 201.972656 159.058594 L 200.496094 159.773438 L 199.027344 160.519531 L 197.558594 161.289062 L 196.09375 162.089844 L 194.632812 162.914062 L 193.175781 163.765625 L 191.726562 164.648438 L 190.277344 165.554688 L 188.832031 166.488281 L 187.390625 167.449219 L 185.953125 168.4375 L 184.519531 169.449219 L 183.089844 170.492188 L 181.664062 171.558594 L 180.238281 172.648438 L 178.820312 173.769531 L 177.402344 174.914062 L 175.988281 176.085938 L 174.578125 177.28125 L 173.167969 178.503906 L 172.800781 178.832031 L 172.429688 178.503906 L 171.023438 177.28125 L 169.613281 176.085938 L 168.199219 174.914062 L 166.78125 173.769531 L 165.359375 172.648438 L 163.9375 171.558594 L 162.511719 170.492188 L 161.082031 169.449219 L 159.648438 168.4375 L 158.210938 167.449219 L 156.769531 166.488281 L 155.324219 165.554688 L 153.875 164.648438 L 152.421875 163.765625 L 150.964844 162.914062 L 149.507812 162.089844 L 148.042969 161.289062 L 146.574219 160.519531 L 145.101562 159.773438 L 143.625 159.058594 L 142.144531 158.371094 L 140.664062 157.710938 L 139.175781 157.082031 L 137.683594 156.480469 L 136.1875 155.90625 L 134.6875 155.359375 L 133.1875 154.84375 L 131.679688 154.355469 L 130.167969 153.898438 L 128.65625 153.472656 L 127.140625 153.074219 L 125.621094 152.703125 L 124.097656 152.367188 L 122.574219 152.058594 L 121.046875 151.78125 L 119.515625 151.53125 L 117.984375 151.316406 L 116.453125 151.128906 L 114.917969 150.976562 L 113.382812 150.851562 L 111.84375 150.757812 L 110.308594 150.695312 L 108.769531 150.664062 L 107.230469 150.738281 L 105.699219 150.921875 L 104.175781 151.132812 L 102.65625 151.375 L 101.144531 151.648438 L 99.640625 151.949219 L 98.140625 152.285156 L 96.652344 152.648438 L 95.171875 153.039062 L 93.695312 153.464844 L 92.230469 153.914062 L 90.773438 154.394531 L 89.324219 154.90625 L 87.882812 155.445312 L 86.449219 156.011719 L 85.023438 156.605469 L 83.609375 157.230469 L 82.203125 157.878906 L 80.804688 158.558594 L 79.414062 159.261719 L 78.03125 159.996094 L 76.660156 160.753906 L 75.292969 161.539062 L 73.9375 162.351562 L 72.589844 163.191406 L 71.246094 164.054688 L 69.914062 164.945312 L 68.589844 165.863281 L 67.273438 166.804688 L 65.964844 167.773438 L 64.664062 168.769531 L 63.371094 169.785156 L 62.082031 170.832031 L 60.800781 171.898438 L 59.53125 172.996094 L 58.265625 174.113281 L 57.003906 175.257812 L 55.753906 176.429688 L 54.507812 177.621094 L 53.265625 178.839844 L 52.035156 180.085938 L 50.804688 181.355469 L 49.585938 182.648438 L 48.371094 183.964844 L 47.160156 185.308594 L 45.957031 186.675781 L 44.757812 188.070312 L 43.566406 189.488281 L 42.378906 190.929688 L 41.195312 192.394531 L 39.40625 194.613281 L 42.957031 198.167969 L 45.203125 196.40625 L 46.640625 195.28125 L 48.070312 194.183594 L 49.496094 193.113281 L 50.917969 192.074219 L 52.332031 191.0625 L 53.738281 190.078125 L 55.140625 189.121094 L 56.539062 188.191406 L 57.929688 187.292969 L 59.316406 186.421875 L 60.695312 185.578125 L 62.066406 184.761719 L 63.429688 183.972656 L 64.789062 183.214844 L 66.144531 182.484375 L 67.488281 181.777344 L 68.828125 181.101562 L 70.15625 180.453125 L 71.480469 179.835938 L 72.796875 179.242188 L 74.109375 178.675781 L 75.410156 178.136719 L 76.703125 177.625 L 77.988281 177.140625 L 79.265625 176.683594 L 80.535156 176.253906 L 81.796875 175.847656 L 83.050781 175.46875 L 84.296875 175.117188 L 85.53125 174.792969 L 86.761719 174.492188 L 87.980469 174.21875 L 89.191406 173.972656 L 90.394531 173.746094 L 91.585938 173.550781 L 92.773438 173.375 L 93.949219 173.226562 L 95.117188 173.101562 L 96.277344 173 L 97.429688 172.921875 L 98.574219 172.871094 L 99.710938 172.839844 L 100.839844 172.832031 L 101.960938 172.847656 L 103.074219 172.886719 L 104.179688 172.949219 L 105.28125 173.03125 L 106.371094 173.140625 L 107.460938 173.265625 L 108.539062 173.339844 L 109.621094 173.363281 L 110.699219 173.40625 L 111.78125 173.472656 L 112.863281 173.558594 L 113.949219 173.667969 L 115.03125 173.800781 L 116.121094 173.953125 L 117.207031 174.128906 L 118.300781 174.328125 L 119.394531 174.550781 L 120.488281 174.792969 L 121.585938 175.058594 L 122.6875 175.347656 L 123.792969 175.660156 L 124.902344 175.996094 L 126.015625 176.355469 L 127.128906 176.738281 L 128.25 177.148438 L 129.371094 177.578125 L 130.496094 178.03125 L 131.628906 178.511719 L 132.761719 179.015625 L 133.902344 179.546875 L 135.042969 180.097656 L 136.1875 180.679688 L 137.339844 181.28125 L 138.492188 181.910156 L 139.652344 182.566406 L 140.8125 183.246094 L 141.980469 183.953125 L 143.148438 184.6875 L 144.324219 185.445312 L 145.5 186.230469 L 146.679688 187.039062 L 147.863281 187.878906 L 149.050781 188.742188 L 150.242188 189.632812 L 151.4375 190.550781 L 152.636719 191.492188 L 153.839844 192.464844 L 155.042969 193.460938 L 156.25 194.488281 L 157.460938 195.539062 L 158.675781 196.617188 L 159.890625 197.722656 L 161.109375 198.855469 L 162.332031 200.015625 L 163.554688 201.203125 L 164.78125 202.417969 L 164.824219 202.457031 L 180.777344 202.457031 L 180.816406 202.417969 L 182.042969 201.203125 L 183.269531 200.015625 L 184.492188 198.855469 L 185.710938 197.722656 L 186.925781 196.617188 L 188.140625 195.539062 L 189.351562 194.488281 L 190.558594 193.460938 L 191.761719 192.464844 L 192.964844 191.492188 L 194.160156 190.550781 L 195.355469 189.632812 L 196.546875 188.742188 L 197.734375 187.878906 L 198.917969 187.039062 L 200.101562 186.230469 L 201.277344 185.445312 L 202.449219 184.6875 L 203.621094 183.953125 L 204.785156 183.246094 L 205.949219 182.566406 L 207.105469 181.910156 L 208.261719 181.28125 L 209.410156 180.679688 L 210.558594 180.097656 L 211.699219 179.546875 L 212.835938 179.015625 L 213.972656 178.511719 L 215.101562 178.03125 L 216.230469 177.578125 L 217.351562 177.148438 L 218.46875 176.738281 L 219.585938 176.355469 L 220.699219 175.996094 L 221.804688 175.660156 L 222.910156 175.347656 L 224.011719 175.058594 L 225.113281 174.792969 L 226.207031 174.550781 L 227.300781 174.328125 L 228.390625 174.128906 L 229.480469 173.953125 L 230.566406 173.800781 L 231.652344 173.667969 L 232.734375 173.558594 L 233.816406 173.472656 L 234.898438 173.40625 L 235.980469 173.363281 L 237.058594 173.339844 L 238.140625 173.367188 L 239.21875 173.4375 L 240.292969 173.53125 L 241.371094 173.648438 L 242.445312 173.785156 L 243.515625 173.941406 L 244.589844 174.125 L 245.664062 174.324219 L 246.734375 174.550781 L 247.808594 174.796875 L 248.882812 175.066406 L 249.957031 175.355469 L 251.035156 175.671875 L 252.109375 176.007812 L 253.1875 176.367188 L 254.269531 176.746094 L 255.347656 177.152344 L 256.433594 177.578125 L 257.519531 178.03125 L 258.605469 178.503906 L 259.695312 179.003906 L 260.789062 179.527344 L 261.882812 180.074219 L 262.980469 180.644531 L 264.078125 181.238281 L 265.183594 181.855469 L 266.285156 182.5 L 267.394531 183.171875 L 268.503906 183.863281 L 269.617188 184.582031 L 270.734375 185.328125 L 271.851562 186.097656 L 272.972656 186.890625 L 274.09375 187.714844 L 275.222656 188.558594 L 276.351562 189.433594 L 277.480469 190.332031 L 278.613281 191.257812 L 279.75 192.207031 L 280.886719 193.183594 L 282.027344 194.1875 L 283.167969 195.21875 L 284.3125 196.277344 L 285.460938 197.359375 L 286.609375 198.46875 L 287.757812 199.605469 L 288.910156 200.769531 L 290.066406 201.960938 L 291.222656 203.175781 L 292.378906 204.421875 L 302.042969 214.800781 Z M 322.800781 194.042969 "/>
</g>
</svg>
