<?xml version="1.0" encoding="UTF-8"?>
<svg xmlns="http://www.w3.org/2000/svg" xmlns:xlink="http://www.w3.org/1999/xlink" width="288pt" height="144pt" viewBox="0 0 288 144" version="1.1">
<g id="surface29">
<rect x="0" y="0" width="288" height="144" style="fill:rgb(100%,100%,100%);fill-opacity:1;stroke:none;"/>
<path style="fill-rule:nonzero;fill:rgb(0%,0%,0%);fill-opacity:1;stroke-width:0.75;stroke-linecap:round;stroke-linejoin:round;stroke:rgb(0%,0%,0%);stroke-opacity:1;stroke-miterlimit:10;" d="M 161.394531 129.453125 L 162.597656 129.402344 L 163.796875 129.3125 L 164.996094 129.183594 L 166.195312 129.023438 L 167.394531 128.828125 L 168.585938 128.597656 L 169.777344 128.332031 L 170.964844 128.03125 L 172.148438 127.699219 L 173.324219 127.332031 L 174.496094 126.933594 L 175.660156 126.503906 L 176.824219 126.042969 L 177.976562 125.554688 L 179.125 125.03125 L 180.265625 124.480469 L 181.402344 123.898438 L 182.53125 123.289062 L 183.65625 122.652344 L 184.773438 121.988281 L 185.886719 121.292969 L 186.992188 120.574219 L 188.09375 119.828125 L 189.1875 119.054688 L 190.277344 118.253906 L 191.363281 117.425781 L 192.441406 116.574219 L 193.519531 115.695312 L 194.589844 114.792969 L 195.660156 113.867188 L 196.722656 112.910156 L 197.785156 111.933594 L 198.839844 110.929688 L 199.894531 109.898438 L 200.945312 108.84375 L 201.992188 107.765625 L 203.039062 106.664062 L 204.082031 105.535156 L 205.125 104.378906 L 206.164062 103.203125 L 207.199219 102 L 208.234375 100.773438 L 209.269531 99.519531 L 210.300781 98.242188 L 211.332031 96.941406 L 212.363281 95.613281 L 213.394531 94.261719 L 189.808594 78.539062 L 189.089844 79.777344 L 188.375 80.992188 L 187.660156 82.175781 L 186.949219 83.332031 L 186.238281 84.457031 L 185.527344 85.558594 L 184.820312 86.628906 L 184.113281 87.671875 L 183.40625 88.6875 L 182.707031 89.675781 L 182.007812 90.632812 L 181.308594 91.566406 L 180.613281 92.46875 L 179.921875 93.34375 L 179.234375 94.191406 L 178.550781 95.007812 L 177.867188 95.800781 L 177.191406 96.566406 L 176.515625 97.300781 L 175.847656 98.011719 L 175.183594 98.691406 L 174.523438 99.347656 L 173.867188 99.976562 L 173.21875 100.578125 L 172.570312 101.152344 L 171.933594 101.699219 L 171.300781 102.222656 L 170.671875 102.722656 L 170.050781 103.195312 L 169.433594 103.644531 L 168.824219 104.070312 L 168.21875 104.46875 L 167.625 104.847656 L 167.03125 105.203125 L 166.445312 105.535156 L 165.867188 105.84375 L 165.292969 106.132812 L 164.726562 106.402344 L 164.164062 106.652344 L 163.601562 106.882812 L 163.046875 107.09375 L 162.496094 107.285156 L 161.949219 107.457031 L 161.402344 107.613281 L 160.859375 107.753906 L 160.3125 107.875 L 159.769531 107.980469 L 159.222656 108.070312 L 158.675781 108.140625 L 158.125 108.195312 L 157.570312 108.234375 L 157.011719 108.253906 L 156.445312 108.257812 L 155.875 108.246094 L 155.296875 108.214844 L 154.710938 108.164062 L 154.117188 108.097656 L 153.515625 108.007812 L 152.902344 107.902344 L 152.28125 107.773438 L 151.648438 107.625 L 151.007812 107.453125 L 150.355469 107.257812 L 149.691406 107.042969 L 149.015625 106.800781 L 148.332031 106.539062 L 147.636719 106.25 L 146.929688 105.933594 L 146.210938 105.597656 L 145.484375 105.230469 L 144.75 104.839844 L 144.003906 104.421875 L 143.246094 103.976562 L 142.480469 103.503906 L 141.707031 103.003906 L 140.925781 102.476562 L 140.132812 101.921875 L 139.332031 101.335938 L 138.527344 100.726562 L 137.710938 100.085938 L 136.886719 99.414062 L 136.058594 98.71875 L 135.222656 97.992188 L 134.378906 97.238281 L 133.53125 96.453125 L 132.675781 95.640625 L 131.8125 94.800781 L 130.949219 93.929688 L 130.074219 93.03125 L 129.199219 92.105469 L 128.316406 91.148438 L 127.429688 90.164062 L 126.539062 89.148438 L 125.640625 88.109375 L 124.738281 87.039062 L 123.835938 85.9375 L 122.925781 84.808594 L 122.011719 83.652344 L 121.097656 82.46875 L 120.105469 81.171875 L 119.113281 79.902344 L 118.125 78.660156 L 117.132812 77.441406 L 116.144531 76.25 L 115.15625 75.082031 L 114.164062 73.945312 L 113.175781 72.832031 L 112.1875 71.742188 L 111.203125 70.679688 L 110.214844 69.644531 L 109.226562 68.636719 L 108.238281 67.652344 L 107.25 66.695312 L 106.261719 65.765625 L 105.273438 64.863281 L 104.285156 63.984375 L 103.296875 63.132812 L 102.308594 62.308594 L 101.320312 61.507812 L 100.332031 60.738281 L 99.339844 59.992188 L 98.351562 59.273438 L 97.359375 58.582031 L 96.367188 57.917969 L 95.375 57.277344 L 94.382812 56.667969 L 93.386719 56.085938 L 92.394531 55.53125 L 91.398438 55 L 90.402344 54.5 L 89.40625 54.03125 L 88.40625 53.585938 L 87.410156 53.167969 L 86.410156 52.78125 L 85.414062 52.421875 L 84.414062 52.09375 L 83.414062 51.792969 L 82.417969 51.519531 L 81.417969 51.277344 L 80.421875 51.066406 L 79.421875 50.882812 L 78.425781 50.730469 L 77.433594 50.605469 L 76.441406 50.511719 L 75.449219 50.445312 L 74.460938 50.410156 L 73.472656 50.40625 L 72.492188 50.433594 L 71.511719 50.488281 L 70.535156 50.574219 L 69.5625 50.6875 L 68.59375 50.832031 L 67.628906 51.003906 L 66.667969 51.207031 L 65.710938 51.4375 L 64.761719 51.695312 L 63.816406 51.980469 L 62.875 52.296875 L 61.941406 52.640625 L 61.011719 53.011719 L 60.085938 53.410156 L 59.164062 53.835938 L 58.25 54.289062 L 57.34375 54.769531 L 56.4375 55.277344 L 55.539062 55.808594 L 54.644531 56.367188 L 53.757812 56.953125 L 52.871094 57.566406 L 51.992188 58.203125 L 51.117188 58.863281 L 50.246094 59.554688 L 49.378906 60.269531 L 48.515625 61.007812 L 47.660156 61.773438 L 46.804688 62.566406 L 45.953125 63.382812 L 45.105469 64.222656 L 44.261719 65.089844 L 43.421875 65.984375 L 42.585938 66.902344 L 41.753906 67.84375 L 40.921875 68.8125 L 40.097656 69.808594 L 39.273438 70.828125 L 38.449219 71.871094 L 37.632812 72.941406 L 36.816406 74.039062 L 36.003906 75.160156 L 35.195312 76.304688 L 34.386719 77.480469 L 33.582031 78.675781 L 32.777344 79.898438 L 31.976562 81.148438 L 31.179688 82.421875 L 30.382812 83.722656 L 29.589844 85.046875 L 28.800781 86.398438 L 29.753906 85.160156 L 30.707031 83.945312 L 31.65625 82.761719 L 32.601562 81.601562 L 33.546875 80.46875 L 34.492188 79.367188 L 35.429688 78.289062 L 36.371094 77.242188 L 37.304688 76.21875 L 38.238281 75.222656 L 39.167969 74.257812 L 40.09375 73.316406 L 41.019531 72.40625 L 41.941406 71.519531 L 42.859375 70.664062 L 43.773438 69.835938 L 44.6875 69.03125 L 45.59375 68.257812 L 46.5 67.511719 L 47.402344 66.792969 L 48.300781 66.101562 L 49.195312 65.433594 L 50.085938 64.796875 L 50.972656 64.1875 L 51.855469 63.605469 L 52.734375 63.050781 L 53.609375 62.523438 L 54.480469 62.023438 L 55.347656 61.550781 L 56.207031 61.101562 L 57.0625 60.683594 L 57.914062 60.289062 L 58.761719 59.921875 L 59.601562 59.582031 L 60.441406 59.269531 L 61.269531 58.984375 L 62.097656 58.722656 L 62.917969 58.484375 L 63.734375 58.273438 L 64.542969 58.089844 L 65.347656 57.929688 L 66.148438 57.792969 L 66.941406 57.683594 L 67.734375 57.59375 L 68.519531 57.53125 L 69.296875 57.492188 L 70.074219 57.476562 L 70.847656 57.488281 L 71.617188 57.519531 L 72.382812 57.574219 L 73.144531 57.652344 L 73.902344 57.753906 L 74.660156 57.878906 L 75.414062 58.023438 L 76.167969 58.195312 L 76.917969 58.390625 L 77.667969 58.605469 L 78.417969 58.84375 L 79.164062 59.109375 L 79.910156 59.394531 L 80.65625 59.703125 L 81.40625 60.039062 L 82.152344 60.394531 L 82.898438 60.777344 L 83.644531 61.183594 L 84.394531 61.613281 L 85.140625 62.070312 L 85.890625 62.550781 L 86.640625 63.054688 L 87.390625 63.585938 L 88.140625 64.140625 L 88.890625 64.71875 L 89.644531 65.328125 L 90.398438 65.957031 L 91.148438 66.617188 L 91.90625 67.300781 L 92.660156 68.007812 L 93.414062 68.746094 L 94.171875 69.507812 L 94.925781 70.292969 L 95.683594 71.109375 L 96.441406 71.949219 L 97.199219 72.816406 L 97.957031 73.710938 L 98.714844 74.632812 L 99.472656 75.578125 L 100.230469 76.554688 L 100.988281 77.554688 L 101.746094 78.582031 L 102.5 79.636719 L 103.257812 80.71875 L 104.015625 81.824219 L 104.773438 82.960938 L 105.527344 84.121094 L 106.285156 85.308594 L 107.039062 86.523438 L 107.796875 87.765625 L 108.550781 89.035156 L 109.304688 90.332031 L 110.132812 91.738281 L 110.964844 93.121094 L 111.800781 94.476562 L 112.640625 95.8125 L 113.488281 97.121094 L 114.335938 98.40625 L 115.1875 99.667969 L 116.046875 100.90625 L 116.910156 102.117188 L 117.777344 103.304688 L 118.652344 104.46875 L 119.53125 105.609375 L 120.414062 106.726562 L 121.304688 107.816406 L 122.203125 108.886719 L 123.105469 109.929688 L 124.015625 110.949219 L 124.929688 111.941406 L 125.851562 112.914062 L 126.785156 113.859375 L 127.722656 114.78125 L 128.667969 115.679688 L 129.621094 116.550781 L 130.582031 117.398438 L 131.554688 118.222656 L 132.535156 119.019531 L 133.523438 119.789062 L 134.523438 120.535156 L 135.53125 121.253906 L 136.550781 121.949219 L 137.578125 122.613281 L 138.617188 123.25 L 139.667969 123.863281 L 140.730469 124.445312 L 141.800781 124.996094 L 142.882812 125.523438 L 143.976562 126.015625 L 145.078125 126.480469 L 146.191406 126.910156 L 147.316406 127.3125 L 148.449219 127.679688 L 149.589844 128.015625 L 150.742188 128.316406 L 151.902344 128.585938 L 153.070312 128.816406 L 154.246094 129.015625 L 155.425781 129.179688 L 156.613281 129.308594 L 157.804688 129.398438 L 158.996094 129.453125 L 160.195312 129.472656 Z M 161.394531 129.453125 "/>
</g>
</svg>
